<?xml version="1.0" encoding="UTF-8"?>
<svg width="256px" height="256px" viewBox="0 0 256 256" version="1.1" xmlns="http://www.w3.org/2000/svg" xmlns:xlink="http://www.w3.org/1999/xlink">
    <!-- Generator: Sketch 46.2 (44496) - http://www.bohemiancoding.com/sketch -->
    <title>Artboard</title>
    <desc>Created with Sketch.</desc>
    <defs></defs>
    <g id="wtf" stroke="none" stroke-width="1" fill="none" fill-rule="evenodd">
        <g id="Artboard">
            <g id="Page-1" transform="translate(39.000000, 42.000000)">
                <g id="Group-7" transform="translate(127.000000, 109.000000)">
                    <path d="M44.5657,89.7272 C20.0537,89.7272 0.1127,69.7882 0.1127,45.2742 C0.1127,20.7592 20.0537,0.8212 44.5657,0.8212 C69.0777,0.8212 89.0187,20.7592 89.0187,45.2742 C89.0187,69.7882 69.0777,89.7272 44.5657,89.7272" id="Fill-3" fill="#FFFFFF"></path>
                    <path d="M44.5657,89.7272 C20.0537,89.7272 0.1127,69.7882 0.1127,45.2742 C0.1127,20.7592 20.0537,0.8212 44.5657,0.8212 C69.0777,0.8212 89.0187,20.7592 89.0187,45.2742 C89.0187,69.7882 69.0777,89.7272 44.5657,89.7272 Z" id="Stroke-5" stroke="#000000"></path>
                </g>
                <g id="Group-38">
                    <path d="M181.552,45.9704 L181.552,163.2764 C181.552,165.4974 180.774,167.3854 179.22,168.9414 C177.663,170.4954 175.776,171.2734 173.555,171.2734 L8.282,171.2734 C6.06,171.2734 4.172,170.4954 2.618,168.9414 C1.062,167.3854 0.285,165.4974 0.285,163.2764 L0.285,45.9704" id="Fill-10" fill="#FFFFFF"></path>
                    <path d="M0.2854,45.9865 L0.2854,19.3295 C0.2854,17.1095 1.0614,15.2215 2.6184,13.6655 C4.1724,12.1105 6.0594,11.3325 8.2824,11.3325 L174.8884,11.3325 C176.4424,11.3325 177.9414,11.9155 179.3864,13.0815 C180.8284,14.2485 181.5524,16.3305 181.5524,19.3295 L181.5524,45.9865 L0.2854,45.9865 Z" id="Fill-12" fill="#EF7466"></path>
                    <path d="M48.2679,24.6608 C48.2679,25.4388 48.0179,26.0778 47.5179,26.5768 C47.0179,27.0768 46.3779,27.3268 45.6019,27.3268 C44.8239,27.3268 44.1859,27.0768 43.6859,26.5768 C43.1869,26.0778 42.9369,25.4388 42.9369,24.6608 L42.9369,3.3358 C42.9369,2.5588 43.1869,1.9188 43.6859,1.4198 C44.1859,0.9198 44.8239,0.6698 45.6019,0.6698 C46.3779,0.6698 47.0179,0.9198 47.5179,1.4198 C48.0179,1.9188 48.2679,2.5588 48.2679,3.3358 L48.2679,24.6608 Z" id="Fill-14" fill="#FFFFFF"></path>
                    <path d="M136.2356,27.3268 C135.4576,27.3268 134.8196,27.0768 134.3196,26.5768 C133.8196,26.0768 133.5696,25.4388 133.5696,24.6608 L133.5696,3.3358 C133.5696,2.5588 133.8196,1.9188 134.3196,1.4198 C134.8196,0.9198 135.4576,0.6698 136.2356,0.6698 C137.0116,0.6698 137.6516,0.9198 138.1516,1.4198 C138.6516,1.9188 138.9006,2.5588 138.9006,3.3358 L138.9006,24.6608 C138.9006,25.4388 138.6516,26.0768 138.1516,26.5768 C137.6516,27.0768 137.0116,27.3268 136.2356,27.3268" id="Fill-16" fill="#FFFFFF"></path>
                    <path d="M34.7825,64.6466 L34.7825,149.8966" id="Stroke-18" stroke="#EF7466" stroke-width="2"></path>
                    <path d="M72.2825,64.6466 L72.2825,149.8966" id="Stroke-20" stroke="#EF7466" stroke-width="2"></path>
                    <path d="M109.7825,64.6466 L109.7825,149.8966" id="Stroke-22" stroke="#EF7466" stroke-width="2"></path>
                    <path d="M147.2825,64.6466 L147.2825,149.8966" id="Stroke-24" stroke="#EF7466" stroke-width="2"></path>
                    <path d="M21.5325,93.7716 L160.4075,93.7716" id="Stroke-26" stroke="#EF7466" stroke-width="2"></path>
                    <path d="M21.5325,125.7716 L160.4075,125.7716" id="Stroke-28" stroke="#EF7466" stroke-width="2"></path>
                    <path d="M115.3206,151.2741 C115.3206,122.2551 138.9256,98.6521 167.9416,98.6521" id="Fill-30" fill="#FFFFFF"></path>
                    <path d="M168.9866,198.2897 C144.1656,198.2897 123.9716,178.0967 123.9716,153.2757 C123.9716,128.4547 144.1656,108.2617 168.9866,108.2617 C193.8066,108.2617 214.0006,128.4547 214.0006,153.2757 C214.0006,178.0967 193.8066,198.2897 168.9866,198.2897" id="Fill-32" fill="#F5B781"></path>
                    <path d="M168.9856,105.7614 C142.7866,105.7614 121.4716,127.0764 121.4716,153.2754 C121.4716,179.4744 142.7866,200.7894 168.9856,200.7894 C195.1846,200.7894 216.5006,179.4744 216.5006,153.2754 C216.5006,127.0764 195.1846,105.7614 168.9856,105.7614 M168.9856,110.7614 C192.4286,110.7614 211.5006,129.8304 211.5006,153.2754 C211.5006,176.7204 192.4286,195.7894 168.9856,195.7894 C145.5436,195.7894 126.4716,176.7204 126.4716,153.2754 C126.4716,129.8304 145.5436,110.7614 168.9856,110.7614" id="Fill-34" fill="#D43649"></path>
                    <polyline id="Stroke-36" stroke="#85374B" stroke-width="4" stroke-linecap="round" points="190.8714 141.9821 163.4374 169.4161 146.6624 152.6411"></polyline>
                </g>
            </g>
        </g>
    </g>
</svg>