<?xml version="1.0" encoding="UTF-8"?>
<svg width="96px" height="96px" viewBox="0 0 96 96" version="1.1" xmlns="http://www.w3.org/2000/svg" xmlns:xlink="http://www.w3.org/1999/xlink">
    <!-- Generator: Sketch 45.2 (43514) - http://www.bohemiancoding.com/sketch -->
    <title>Artboard Copy 3</title>
    <desc>Created with Sketch.</desc>
    <defs></defs>
    <g id="Page-1" stroke="none" stroke-width="1" fill="none" fill-rule="evenodd">
        <g id="Artboard-Copy-3" fill="#66809F">
            <path d="M42.0782261,34.231 L47.3522261,31.459 L52.6262261,34.231 L51.6192261,28.358 L55.8852261,24.199 L49.9892261,23.342 L47.3522261,18 L44.7152261,23.342 L38.8192261,24.199 L43.0852261,28.358 L42.0782261,34.231 Z M50.1992261,47.901 C49.6062261,47.901 49.1262261,48.381 49.1262261,48.973 C49.1262261,49.565 49.6062261,50.045 50.1992261,50.045 C50.7902261,50.045 51.2712261,49.565 51.2712261,48.973 C51.2712261,48.381 50.7902261,47.901 50.1992261,47.901 L50.1992261,47.901 Z M47.5242261,52.973 C46.0462261,52.973 44.8492261,52.244 44.8492261,52.973 C44.8492261,54.022 46.5732261,54.454 47.3032261,54.454 C48.0782261,54.454 49.8262261,54.022 49.8262261,52.958 C49.8262261,52.183 49.0012261,52.973 47.5242261,52.973 L47.5242261,52.973 Z M54.3762261,51.079 C53.6502261,54.319 50.7622261,56.742 47.3032261,56.742 C43.8452261,56.742 40.9572261,54.321 40.2302261,51.083 C39.3752261,51.049 38.6912261,50.351 38.6912261,49.488 C38.6912261,48.625 39.3752261,47.926 40.2302261,47.893 C40.9432261,44.719 43.7352261,42.345 47.1012261,42.251 C47.1012261,42.252 47.1002261,42.252 47.1002261,42.253 C47.1292261,42.962 46.9542261,43.192 46.9452261,43.2 C46.7852261,43.374 46.5892261,43.523 46.3972261,43.672 C45.8942261,44.062 45.2692261,44.547 45.2692261,45.395 C45.2692261,46.543 46.2032261,47.478 47.3522261,47.478 C48.5002261,47.478 49.4352261,46.543 49.4352261,45.395 C49.4352261,45.126 49.2172261,44.908 48.9492261,44.908 C48.6802261,44.908 48.4622261,45.126 48.4622261,45.395 C48.4622261,46.007 47.9642261,46.505 47.3522261,46.505 C46.7402261,46.505 46.2422261,46.007 46.2422261,45.395 C46.2422261,45.042 46.5272261,44.802 46.9932261,44.441 C47.2202261,44.265 47.4542261,44.083 47.6232261,43.897 C47.7382261,43.796 48.1012261,43.382 48.0722261,42.278 C51.1832261,42.607 53.7052261,44.9 54.3762261,47.896 C55.2172261,47.945 55.8852261,48.635 55.8852261,49.488 C55.8852261,50.34 55.2172261,51.031 54.3762261,51.079 L54.3762261,51.079 Z M56.6822261,42.841 C53.4322261,39.856 50.5702261,39.513 47.6682261,39.481 L47.6672261,39.478 C47.5622261,39.478 47.4572261,39.478 47.3522261,39.478 C47.2472261,39.478 47.1422261,39.478 47.0362261,39.478 L47.0362261,39.481 C44.1342261,39.513 41.2722261,39.856 38.0222261,42.841 C34.5362261,46.043 35.0232261,51.757 35.0232261,51.757 C35.0232261,51.757 35.0302261,51.838 35.0422261,51.988 C35.2492261,52.258 35.4122261,52.424 35.4172261,52.428 C35.4692261,52.475 38.8222261,55.474 44.3952261,58.646 C54.4792261,59.002 59.1682261,52.771 59.2152261,52.707 C59.2312261,52.688 59.4302261,52.452 59.6572261,52.051 C59.6722261,51.864 59.6812261,51.757 59.6812261,51.757 C59.6812261,51.757 60.1672261,46.043 56.6822261,42.841 L56.6822261,42.841 Z M35.1592261,53.399 C35.3292261,55.493 35.6442261,59.412 35.9952261,64.118 C36.5222261,71.17 36.6442261,73.318 38.9132261,75.669 C41.1832261,78.019 45.2762261,77.776 45.2762261,77.776 L49.4282261,77.776 C49.4282261,77.776 53.5212261,78.019 55.7902261,75.669 C57.9632261,73.419 58.1682261,71.342 58.6432261,64.987 L58.5312261,65.424 C45.9732261,62.202 36.9692261,54.941 35.1592261,53.399 L35.1592261,53.399 Z M46.0262261,59.543 C49.5702261,61.427 53.8502261,63.28 58.6782261,64.527 C58.6882261,64.389 58.6982261,64.26 58.7082261,64.118 C59.0402261,59.676 59.3402261,55.928 59.5162261,53.761 C58.2602261,55.186 53.9682261,59.288 46.0262261,59.543 L46.0262261,59.543 Z M45.4632261,48.973 C45.4632261,48.381 44.9832261,47.901 44.3912261,47.901 C43.7992261,47.901 43.3192261,48.381 43.3192261,48.973 C43.3192261,49.565 43.7992261,50.045 44.3912261,50.045 C44.9832261,50.045 45.4632261,49.565 45.4632261,48.973 L45.4632261,48.973 Z" id="Fill-3"></path>
        </g>
    </g>
</svg>