<?xml version="1.0" encoding="UTF-8"?>
<svg width="96px" height="96px" viewBox="0 0 96 96" version="1.1" xmlns="http://www.w3.org/2000/svg" xmlns:xlink="http://www.w3.org/1999/xlink">
    <!-- Generator: Sketch 45.2 (43514) - http://www.bohemiancoding.com/sketch -->
    <title>Artboard Copy</title>
    <desc>Created with Sketch.</desc>
    <defs></defs>
    <g id="Page-1" stroke="none" stroke-width="1" fill="none" fill-rule="evenodd">
        <g id="Artboard-Copy" fill="#66809F">
            <path d="M37.73,45.484 C40.407,50.746 44.721,55.041 49.983,57.736 L54.073,53.646 C54.575,53.144 55.319,52.976 55.97,53.2 C58.052,53.887 60.302,54.259 62.607,54.259 C63.63,54.259 64.466,55.096 64.466,56.119 L64.466,62.608 C64.466,63.63 63.63,64.467 62.607,64.467 C45.148,64.467 31,50.318 31,32.859 C31,31.837 31.836,31 32.859,31 L39.366,31 C40.389,31 41.226,31.837 41.226,32.859 C41.226,35.183 41.597,37.415 42.285,39.497 C42.49,40.148 42.341,40.873 41.82,41.393 L37.73,45.484 Z" id="Fill-1"></path>
        </g>
    </g>
</svg>