<?xml version="1.0" encoding="UTF-8"?>
<svg width="64px" height="64px" viewBox="0 0 64 64" version="1.1" xmlns="http://www.w3.org/2000/svg" xmlns:xlink="http://www.w3.org/1999/xlink">
    <!-- Generator: Sketch 46.1 (44463) - http://www.bohemiancoding.com/sketch -->
    <title>icon-dark-stethoscope</title>
    <desc>Created with Sketch.</desc>
    <defs></defs>
    <g id="Page-1" stroke="none" stroke-width="1" fill="none" fill-rule="evenodd">
        <g id="icon-dark-stethoscope" fill="#373C4D">
            <path d="M46.531,42.165 C48.646,42.165 50.306,43.822 50.306,45.935 C50.306,48.047 48.646,49.703 46.531,49.703 C44.416,49.703 42.757,48.047 42.757,45.935 C42.757,43.822 44.416,42.165 46.531,42.165 L46.531,42.165 Z M16.874,5 C14.177,5 12,7.258 12,9.949 L12,22.707 L12,24.281 C12,32.565 18.159,39.42 26.124,40.311 L26.124,48.377 C26.124,54.59 30.997,59.685 37.075,59.685 C41.824,59.685 45.848,56.6 47.382,52.291 C50.514,51.855 52.982,49.164 52.982,45.933 C52.982,42.392 50.079,39.492 46.531,39.492 C43.006,39.492 40.102,42.391 40.102,45.933 C40.102,48.5 41.616,50.717 43.815,51.731 C42.612,54.382 40.061,56.185 37.075,56.185 C32.948,56.185 29.629,52.768 29.629,48.377 L29.629,40.311 C37.593,39.42 43.753,32.565 43.753,24.281 L43.753,22.707 L43.753,9.95 C43.753,7.258 41.555,5.001 38.859,5.001 L35.727,5.001 L35.727,8.501 L38.859,8.501 C39.626,8.501 40.248,9.102 40.248,9.95 L40.248,22.708 L40.248,24.281 C40.248,31.303 34.752,36.894 27.887,36.894 C21.002,36.894 15.505,31.303 15.505,24.281 L15.505,22.708 L15.505,9.95 C15.505,9.102 16.106,8.501 16.874,8.501 L20.027,8.501 L20.027,5.001 L16.874,5.001 L16.874,5 Z" id="Fill-3"></path>
        </g>
    </g>
</svg>