<?xml version="1.0" encoding="UTF-8"?>
<svg width="256px" height="224px" viewBox="0 0 256 224" version="1.1" xmlns="http://www.w3.org/2000/svg" xmlns:xlink="http://www.w3.org/1999/xlink">
    <!-- Generator: Sketch 46.2 (44496) - http://www.bohemiancoding.com/sketch -->
    <title>dashboard-lab</title>
    <desc>Created with Sketch.</desc>
    <defs></defs>
    <g id="dashboard" stroke="none" stroke-width="1" fill="none" fill-rule="evenodd">
        <g id="dashboard-lab">
            <path d="M32,15.9998 L224,15.9998 C232.837,15.9998 240,23.1638 240,31.9998 L240,191.9998 C240,200.8358 232.837,207.9998 224,207.9998 L32,207.9998 C23.164,207.9998 16,200.8358 16,191.9998 L16,31.9998 C16,23.1638 23.164,15.9998 32,15.9998 Z" id="Fill-2"></path>
            <g id="Group-31" transform="translate(75.000000, 51.000000)">
                <path d="M56.3818,32.9046 L105.7428,62.7486 C105.9738,62.8656 106.1488,63.0246 106.2658,63.2276 C106.3818,63.4316 106.4408,63.6506 106.4408,63.8826 L106.4408,116.7636 C106.4408,117.9856 106.0038,119.0166 105.1318,119.8606 C104.2598,120.7036 103.2128,121.1266 101.9918,121.1266 L4.8408,121.1266 C3.6208,121.1266 2.5738,120.7036 1.7018,119.8606 C0.8298,119.0166 0.3938,117.9856 0.3938,116.7636 L0.3938,63.8826 C0.3938,63.6506 0.4508,63.4316 0.5688,63.2276 C0.6838,63.0246 0.8588,62.8656 1.0908,62.7486 L50.4518,32.9046 C51.2648,32.1486 52.2538,31.7696 53.4168,31.7696 C54.5788,31.7696 55.5678,32.1486 56.3818,32.9046" id="Fill-4" fill="#FFFFFF"></path>
                <path d="M106.2656,63.2278 C106.1486,63.0248 105.9736,62.8658 105.7436,62.7488 L56.3816,32.9048 C55.5676,32.1488 54.5786,31.7698 53.4166,31.7698 C52.2536,31.7698 51.2656,32.1488 50.4526,32.9048 L1.0916,62.7488 C0.8586,62.8658 0.6836,63.0248 0.5686,63.2278 C0.4576,63.4198 0.4046,63.6258 0.3986,63.8428 C0.4046,64.0598 0.4586,64.2668 0.5686,64.4588 C0.6856,64.6628 0.8596,64.8218 1.0916,64.9388 L50.4526,94.7828 C51.2666,95.5388 52.2546,95.9168 53.4166,95.9168 C54.5806,95.9168 55.5686,95.5388 56.3816,94.7828 L105.7436,64.9388 C105.9756,64.8218 106.1506,64.6628 106.2656,64.4588 C106.3756,64.2668 106.4286,64.0608 106.4356,63.8428 C106.4286,63.6268 106.3746,63.4198 106.2656,63.2278" id="Fill-6" fill="#CCCCCC"></path>
                <path d="M106.2656,63.2278 C106.1486,63.0248 105.9736,62.8658 105.7436,62.7488 L56.3816,32.9048 C55.5676,32.1488 54.5786,31.7698 53.4166,31.7698 C52.2536,31.7698 51.2656,32.1488 50.4526,32.9048 L1.0916,62.7488 C0.8586,62.8658 0.6836,63.0248 0.5686,63.2278 C0.4576,63.4198 0.4046,63.6258 0.3986,63.8428 C0.4046,64.0598 0.4586,64.2668 0.5686,64.4588 C0.6856,64.6628 0.8596,64.8218 1.0916,64.9388 L50.4526,94.7828 C51.2666,95.5388 52.2546,95.9168 53.4166,95.9168 C54.5806,95.9168 55.5686,95.5388 56.3816,94.7828 L105.7436,64.9388 C105.9756,64.8218 106.1506,64.6628 106.2656,64.4588 C106.3756,64.2668 106.4286,64.0608 106.4356,63.8428 C106.4286,63.6268 106.3746,63.4198 106.2656,63.2278 Z" id="Stroke-8" stroke="#CDCCCC" stroke-width="1.172"></path>
                <polygon id="Fill-10" fill="#FFFECF" points="11.282 112.051 96.432 112.051 96.432 0.437 11.282 0.437"></polygon>
                <g id="Group-17" transform="translate(21.000000, 31.000000)" stroke="#66809F" stroke-width="1.172">
                    <path d="M0.0439,20.2454 L66.4449,19.8544" id="Stroke-12"></path>
                    <path d="M0.0439,30.0168 L66.4449,29.6258" id="Stroke-13"></path>
                    <path d="M0.0439,39.7874 L66.4449,39.3964" id="Stroke-14"></path>
                    <path d="M42.205,0.4837 L66.358,0.5317" id="Stroke-15"></path>
                    <path d="M42.0278,10.2532 L66.1808,10.3012" id="Stroke-16"></path>
                </g>
                <path d="M54.5517,16.7869 C55.0307,16.7869 55.4457,16.6119 55.7957,16.2609 C56.1457,15.9119 56.3217,15.4959 56.3217,15.0169 C56.3217,14.5369 56.1457,14.1219 55.7957,13.7719 C55.4457,13.4219 55.0307,13.2459 54.5517,13.2459 C54.0727,13.2459 53.6567,13.4219 53.3077,13.7719 C52.9567,14.1219 52.7817,14.5369 52.7817,15.0169 C52.7817,15.4959 52.9567,15.9119 53.3077,16.2609 C53.6567,16.6119 54.0727,16.7869 54.5517,16.7869 M43.9357,33.6069 C44.4147,33.6069 44.8287,33.4319 45.1797,33.0809 C45.5297,32.7309 45.7047,32.3159 45.7047,31.8359 C45.7047,31.3559 45.5297,30.9409 45.1797,30.5909 C44.8287,30.2409 44.4147,30.0649 43.9357,30.0649 C43.4557,30.0649 43.0407,30.2409 42.6917,30.5909 C42.3417,30.9409 42.1657,31.3559 42.1657,31.8359 C42.1657,32.3159 42.3417,32.7309 42.6917,33.0809 C43.0407,33.4319 43.4557,33.6069 43.9357,33.6069 M31.5497,25.6389 C32.0297,25.6389 32.4437,25.4649 32.7937,25.1139 C33.1437,24.7639 33.3197,24.3489 33.3197,23.8689 C33.3197,23.3899 33.1437,22.9739 32.7937,22.6239 C32.4437,22.2739 32.0297,22.0989 31.5497,22.0989 C31.0707,22.0989 30.6557,22.2739 30.3057,22.6239 C29.9547,22.9739 29.7807,23.3899 29.7807,23.8689 C29.7807,24.3489 29.9547,24.7639 30.3057,25.1139 C30.6557,25.4649 31.0707,25.6389 31.5497,25.6389 M24.4717,38.0329 C24.4717,37.5529 24.2967,37.1389 23.9477,36.7869 C23.5967,36.4379 23.1817,36.2619 22.7027,36.2619 C22.2237,36.2619 21.8087,36.4379 21.4587,36.7869 C21.1087,37.1389 20.9337,37.5529 20.9337,38.0329 C20.9337,38.5119 21.1087,38.9269 21.4587,39.2779 C21.8087,39.6279 22.2237,39.8029 22.7027,39.8029 C23.1817,39.8029 23.5967,39.6279 23.9477,39.2779 C24.2967,38.9269 24.4717,38.5119 24.4717,38.0329 M54.5517,12.3609 C55.2887,12.3609 55.9147,12.6199 56.4317,13.1359 C56.9477,13.6519 57.2057,14.2799 57.2057,15.0169 C57.2057,15.7539 56.9477,16.3819 56.4317,16.8979 C55.9147,17.4139 55.2887,17.6719 54.5517,17.6719 C54.3667,17.6719 54.1927,17.6539 54.0267,17.6169 C53.8607,17.5799 53.6947,17.5339 53.5287,17.4789 L45.7327,29.8999 C45.9897,30.1399 46.1977,30.4249 46.3547,30.7569 C46.5107,31.0889 46.5897,31.4489 46.5897,31.8359 C46.5897,32.5739 46.3307,33.2009 45.8157,33.7169 C45.2997,34.2339 44.6727,34.4909 43.9357,34.4909 C43.1977,34.4909 42.5717,34.2339 42.0557,33.7169 C41.5387,33.2009 41.2807,32.5739 41.2807,31.8359 C41.2807,31.6519 41.2997,31.4669 41.3367,31.2829 C41.3737,31.0989 41.4287,30.9329 41.5027,30.7849 L33.4847,25.6949 C33.2447,25.9529 32.9597,26.1559 32.6287,26.3029 C32.2967,26.4509 31.9367,26.5239 31.5497,26.5239 C31.3837,26.5239 31.2187,26.5059 31.0517,26.4689 C30.8857,26.4329 30.7297,26.3869 30.5817,26.3309 L24.4717,36.0689 C24.7307,36.3079 24.9427,36.5989 25.1087,36.9399 C25.2747,37.2809 25.3567,37.6449 25.3567,38.0329 C25.3567,38.7699 25.0987,39.3969 24.5827,39.9129 C24.0667,40.4299 23.4407,40.6889 22.7027,40.6889 C21.9657,40.6889 21.3387,40.4299 20.8227,39.9129 C20.3067,39.3969 20.0487,38.7699 20.0487,38.0329 C20.0487,37.2949 20.3067,36.6679 20.8227,36.1509 C21.3387,35.6349 21.9657,35.3759 22.7027,35.3759 C22.8867,35.3759 23.0627,35.3949 23.2277,35.4319 C23.3937,35.4689 23.5597,35.5149 23.7257,35.5709 L29.8077,25.8609 C29.5317,25.6209 29.3107,25.3309 29.1447,24.9899 C28.9787,24.6489 28.8957,24.2749 28.8957,23.8689 C28.8957,23.1319 29.1537,22.5039 29.6697,21.9879 C30.1857,21.4719 30.8127,21.2129 31.5497,21.2129 C32.2867,21.2129 32.9137,21.4719 33.4297,21.9879 C33.9457,22.5039 34.2037,23.1319 34.2037,23.8689 C34.2037,24.0539 34.1857,24.2379 34.1487,24.4219 C34.1117,24.6059 34.0477,24.7819 33.9547,24.9479 L42.0007,30.0369 C42.2397,29.7799 42.5257,29.5729 42.8577,29.4149 C43.1887,29.2589 43.5487,29.1799 43.9357,29.1799 C44.1197,29.1799 44.3037,29.1989 44.4887,29.2359 C44.6727,29.2729 44.8477,29.3279 45.0137,29.4009 L52.7817,16.9809 C52.5237,16.7419 52.3127,16.4509 52.1467,16.1089 C51.9807,15.7679 51.8977,15.4039 51.8977,15.0169 C51.8977,14.2799 52.1557,13.6519 52.6717,13.1359 C53.1877,12.6199 53.8147,12.3609 54.5517,12.3609" id="Fill-18" fill="#373C4D"></path>
                <g id="Group-21" transform="translate(9.000000, 88.000000)">
                    <path d="M88.3593,26.6096 L47.3813,1.7706 C46.5673,1.0146 45.5793,0.6356 44.4173,0.6356 C43.2533,0.6356 42.2653,1.0146 41.4523,1.7706 L0.1823,26.7556" id="Fill-19" fill="#FFFFFF"></path>
                    <path d="M88.3593,26.6096 L47.3813,1.7706 C46.5673,1.0146 45.5793,0.6356 44.4173,0.6356 C43.2533,0.6356 42.2653,1.0146 41.4523,1.7706 L0.1823,26.7556" id="Stroke-20" stroke="#CED3DD" stroke-width="1.172"></path>
                </g>
                <path d="M106.3896,63.5276 C106.4166,63.6276 106.4306,63.7316 106.4346,63.8366 C106.4306,63.7306 106.4176,63.6276 106.3896,63.5276" id="Fill-22" fill="#FFFFFF"></path>
                <path d="M0.3989,63.8401 C0.4019,63.7331 0.4169,63.6281 0.4439,63.5271 C0.4159,63.6281 0.4019,63.7331 0.3989,63.8401" id="Fill-23" fill="#FFFFFF"></path>
                <path d="M106.4355,63.844 C106.4285,64.061 106.3755,64.267 106.2655,64.459 C106.1505,64.662 105.9755,64.822 105.7435,64.939 L56.3815,94.782 C55.5685,95.538 54.5805,95.917 53.4165,95.917 C52.2545,95.917 51.2665,95.538 50.4525,94.782 L1.0915,64.939 C0.8595,64.822 0.6855,64.662 0.5685,64.459 C0.4585,64.267 0.4045,64.06 0.3985,63.843 C0.3985,63.857 0.3935,63.868 0.3935,63.882 L0.3935,116.764 C0.3935,117.986 0.8295,119.017 1.7015,119.861 C2.5745,120.703 3.6205,121.126 4.8415,121.126 L101.9925,121.126 C103.2125,121.126 104.2595,120.703 105.1315,119.861 C106.0035,119.017 106.4405,117.986 106.4405,116.764 L106.4405,63.882 C106.4405,63.868 106.4355,63.857 106.4355,63.844" id="Fill-24" fill="#FFFFFF"></path>
                <path d="M106.4355,63.844 C106.4285,64.061 106.3755,64.267 106.2655,64.459 C106.1505,64.662 105.9755,64.822 105.7435,64.939 L56.3815,94.782 C55.5685,95.538 54.5805,95.917 53.4165,95.917 C52.2545,95.917 51.2665,95.538 50.4525,94.782 L1.0915,64.939 C0.8595,64.822 0.6855,64.662 0.5685,64.459 C0.4585,64.267 0.4045,64.06 0.3985,63.843" id="Stroke-25" stroke="#CCCCCC" stroke-width="1.172"></path>
                <g id="Group-28" transform="translate(9.000000, 88.000000)">
                    <path d="M88.3593,26.6096 L47.3813,1.7706 C46.5673,1.0146 45.5793,0.6356 44.4173,0.6356 C43.2533,0.6356 42.2653,1.0146 41.4523,1.7706 L0.1823,26.7556" id="Fill-26" fill="#FFFFFF"></path>
                    <path d="M88.3593,26.6096 L47.3813,1.7706 C46.5673,1.0146 45.5793,0.6356 44.4173,0.6356 C43.2533,0.6356 42.2653,1.0146 41.4523,1.7706 L0.1823,26.7556" id="Stroke-27" stroke="#CCCCCC" stroke-width="1.172"></path>
                </g>
                <path d="M63.205,21.8172 L87.358,21.8652" id="Stroke-29" stroke="#373C4D"></path>
                <path d="M63.205,12.1507 L87.358,12.1987" id="Stroke-30" stroke="#373C4D"></path>
            </g>
        </g>
    </g>
</svg>