<?xml version="1.0" encoding="UTF-8"?>
<svg width="256px" height="224px" viewBox="0 0 256 224" version="1.1" xmlns="http://www.w3.org/2000/svg" xmlns:xlink="http://www.w3.org/1999/xlink">
    <!-- Generator: Sketch 46.2 (44496) - http://www.bohemiancoding.com/sketch -->
    <title>dashboard-exames</title>
    <desc>Created with Sketch.</desc>
    <defs></defs>
    <g id="dashboard" stroke="none" stroke-width="1" fill="none" fill-rule="evenodd">
        <g id="dashboard-exames">
            <path d="M32,16.0003 L224,16.0003 C232.837,16.0003 240,23.1633 240,32.0003 L240,192.0003 C240,200.8363 232.837,208.0003 224,208.0003 L32,208.0003 C23.164,208.0003 16,200.8363 16,192.0003 L16,32.0003 C16,23.1633 23.164,16.0003 32,16.0003 Z" id="Fill-2"></path>
            <g id="Group-26" transform="translate(75.000000, 50.000000)">
                <path d="M56.3818,34.4485 L105.7428,64.2935 C105.9738,64.4095 106.1488,64.5685 106.2658,64.7725 C106.3818,64.9755 106.4408,65.1945 106.4408,65.4265 L106.4408,118.3075 C106.4408,119.5295 106.0038,120.5615 105.1318,121.4055 C104.2598,122.2485 103.2128,122.6705 101.9918,122.6705 L4.8408,122.6705 C3.6208,122.6705 2.5738,122.2485 1.7018,121.4055 C0.8298,120.5615 0.3938,119.5295 0.3938,118.3075 L0.3938,65.4265 C0.3938,65.1945 0.4508,64.9755 0.5688,64.7725 C0.6838,64.5685 0.8588,64.4095 1.0908,64.2935 L50.4518,34.4485 C51.2648,33.6935 52.2538,33.3135 53.4168,33.3135 C54.5788,33.3135 55.5678,33.6935 56.3818,34.4485" id="Fill-4" fill="#FFFFFF"></path>
                <path d="M106.2656,64.7727 C106.1486,64.5687 105.9736,64.4097 105.7436,64.2937 L56.3816,34.4487 C55.5676,33.6937 54.5786,33.3137 53.4166,33.3137 C52.2536,33.3137 51.2656,33.6937 50.4526,34.4487 L1.0916,64.2937 C0.8586,64.4097 0.6836,64.5687 0.5686,64.7727 C0.4576,64.9647 0.4046,65.1707 0.3986,65.3877 C0.4046,65.6047 0.4586,65.8107 0.5686,66.0027 C0.6856,66.2077 0.8596,66.3667 1.0916,66.4837 L50.4526,96.3277 C51.2666,97.0827 52.2546,97.4617 53.4166,97.4617 C54.5806,97.4617 55.5686,97.0827 56.3816,96.3277 L105.7436,66.4837 C105.9756,66.3667 106.1506,66.2077 106.2656,66.0027 C106.3756,65.8107 106.4286,65.6047 106.4356,65.3877 C106.4286,65.1707 106.3746,64.9647 106.2656,64.7727" id="Fill-6" fill="#CCCCCC"></path>
                <path d="M106.2656,64.7727 C106.1486,64.5687 105.9736,64.4097 105.7436,64.2937 L56.3816,34.4487 C55.5676,33.6937 54.5786,33.3137 53.4166,33.3137 C52.2536,33.3137 51.2656,33.6937 50.4526,34.4487 L1.0916,64.2937 C0.8586,64.4097 0.6836,64.5687 0.5686,64.7727 C0.4576,64.9647 0.4046,65.1707 0.3986,65.3877 C0.4046,65.6047 0.4586,65.8107 0.5686,66.0027 C0.6856,66.2077 0.8596,66.3667 1.0916,66.4837 L50.4526,96.3277 C51.2666,97.0827 52.2546,97.4617 53.4166,97.4617 C54.5806,97.4617 55.5686,97.0827 56.3816,96.3277 L105.7436,66.4837 C105.9756,66.3667 106.1506,66.2077 106.2656,66.0027 C106.3756,65.8107 106.4286,65.6047 106.4356,65.3877 C106.4286,65.1707 106.3746,64.9647 106.2656,64.7727 Z" id="Stroke-8" stroke="#CDCCCC" stroke-width="1.172"></path>
                <polygon id="Fill-10" fill="#373C4D" points="11.282 114.738 96.432 114.738 96.432 0.631 11.282 0.631"></polygon>
                <path d="M62.8633,74.8489 C58.1153,74.8489 55.6063,74.2079 55.6063,72.9949 C55.6063,71.1269 58.6703,67.5369 62.8633,67.5369 C65.0493,67.5369 66.9973,67.0369 68.5623,66.6349 C69.1133,66.4949 69.6453,66.3579 70.0793,66.2799 C69.6713,68.9889 66.2843,74.8489 62.8633,74.8489 M44.8493,74.8489 C41.4273,74.8489 38.0383,68.9809 37.6343,66.2759 C38.0553,66.3549 38.5913,66.4929 39.1493,66.6349 C40.7153,67.0369 42.6623,67.5369 44.8493,67.5369 C49.0423,67.5369 52.1063,71.1279 52.1063,72.9949 C52.1063,74.2079 49.5973,74.8489 44.8493,74.8489 M70.6393,62.7069 C69.7823,62.7069 68.8143,62.9539 67.6933,63.2439 C66.2473,63.6149 64.6083,64.0349 62.8633,64.0349 C60.1043,64.0349 57.5413,65.1579 55.6063,66.7639 L55.6063,60.8429 L57.4583,60.8429 C58.4243,60.8429 59.2083,60.0579 59.2083,59.0919 C59.2083,58.1249 58.4243,57.3409 57.4583,57.3409 L55.6063,57.3409 L55.6063,55.0059 L57.4583,55.0059 C58.4243,55.0059 59.2083,54.2219 59.2083,53.2559 C59.2083,52.2889 58.4243,51.5049 57.4583,51.5049 L55.6063,51.5049 L55.6063,44.4379 C58.0063,45.4349 61.3373,45.9099 64.6643,45.9099 C65.6303,45.9099 66.4143,45.1239 66.4143,44.1589 C66.4143,43.1919 65.6303,42.4079 64.6643,42.4079 C59.1893,42.4079 56.0993,41.0489 55.6063,40.4189 L55.6063,38.6999 L71.8683,38.6999 C72.8343,38.6999 73.6183,37.9159 73.6183,36.9489 C73.6183,35.9809 72.8343,35.1979 71.8683,35.1979 L55.6063,35.1979 L55.6063,29.5199 C60.3633,31.3009 68.6473,31.4909 71.8683,31.4909 C72.8343,31.4909 73.6183,30.7069 73.6183,29.7399 C73.6183,28.7719 72.8343,27.9889 71.8683,27.9889 C62.4643,27.9889 56.8043,26.5709 55.6063,25.7389 L55.6063,21.0139 C58.5193,23.0309 63.0233,24.2809 68.2663,24.2809 C69.2323,24.2809 70.0163,23.4969 70.0163,22.5299 C70.0163,21.5619 69.2323,20.7789 68.2663,20.7789 C61.0213,20.7789 55.6063,17.8989 55.6063,15.3209 C55.6063,14.3529 54.8233,13.5709 53.8563,13.5709 C52.8893,13.5709 52.1063,14.3529 52.1063,15.3209 C52.1063,17.8969 46.6913,20.7789 39.4463,20.7789 C38.4793,20.7789 37.6963,21.5619 37.6963,22.5299 C37.6963,23.4969 38.4793,24.2809 39.4463,24.2809 C44.6903,24.2809 49.1943,23.0309 52.1063,21.0139 L52.1063,25.7389 C50.9083,26.5709 45.2493,27.9889 35.8443,27.9889 C34.8773,27.9889 34.0943,28.7719 34.0943,29.7399 C34.0943,30.7069 34.8773,31.4909 35.8443,31.4909 C39.0653,31.4909 47.3493,31.3009 52.1063,29.5199 L52.1063,35.1979 L35.8443,35.1979 C34.8773,35.1979 34.0943,35.9809 34.0943,36.9489 C34.0943,37.9159 34.8773,38.6999 35.8443,38.6999 L52.1063,38.6999 L52.1063,40.4189 C51.6133,41.0479 48.5223,42.4079 43.0493,42.4079 C42.0813,42.4079 41.2993,43.1919 41.2993,44.1589 C41.2993,45.1239 42.0813,45.9099 43.0493,45.9099 C46.3743,45.9099 49.7073,45.4349 52.1063,44.4379 L52.1063,51.5049 L50.2533,51.5049 C49.2863,51.5049 48.5033,52.2889 48.5033,53.2559 C48.5033,54.2219 49.2863,55.0059 50.2533,55.0059 L52.1063,55.0059 L52.1063,57.3409 L50.2523,57.3409 C49.2843,57.3409 48.5023,58.1249 48.5023,59.0919 C48.5023,60.0579 49.2843,60.8429 50.2523,60.8429 L52.1053,60.8429 L52.1053,66.7639 C50.1693,65.1579 47.6063,64.0349 44.8483,64.0349 C43.1033,64.0349 41.4633,63.6139 40.0173,63.2429 C38.8973,62.9539 37.9293,62.7069 37.0723,62.7069 C35.2353,62.7069 34.0933,63.8869 34.0933,65.7859 C34.0933,69.5339 38.6353,78.3509 44.8493,78.3509 C46.6683,78.3509 49.8633,78.3499 52.3003,77.3839 C52.5883,77.9539 53.1743,78.3509 53.8563,78.3509 C54.5383,78.3509 55.1243,77.9539 55.4123,77.3839 C57.8503,78.3499 61.0443,78.3509 62.8633,78.3509 C69.0773,78.3509 73.6193,69.5339 73.6193,65.7859 C73.6193,63.8869 72.4773,62.7069 70.6393,62.7069" id="Fill-12" fill="#FFFFFF"></path>
                <path d="M31.6709,7.1214 C33.1989,7.1214 34.4369,8.3604 34.4369,9.8904 C34.4369,11.4184 33.1989,12.6574 31.6709,12.6574 C30.1429,12.6574 28.9039,11.4184 28.9039,9.8904 C28.9039,8.3604 30.1429,7.1214 31.6709,7.1214" id="Fill-13" fill="#5F819D"></path>
                <path d="M20.6049,12.6575 C19.0769,12.6575 17.8389,11.4185 17.8389,9.8895 C17.8389,8.3605 19.0769,7.1215 20.6049,7.1215 C22.1329,7.1215 23.3719,8.3605 23.3719,9.8895 C23.3719,11.4185 22.1329,12.6575 20.6049,12.6575" id="Fill-14" fill="#5F819D"></path>
                <path d="M86.1308,26.5637 L86.1308,9.9557 C86.1308,9.0387 86.8738,8.2937 87.7908,8.2937 C88.7078,8.2937 89.4508,9.0387 89.4508,9.9557 L89.4508,26.5637 C89.4508,27.4807 88.7078,28.2247 87.7908,28.2247 C86.8738,28.2247 86.1308,27.4807 86.1308,26.5637" id="Fill-15" fill="#66809F"></path>
                <g id="Group-18" transform="translate(9.000000, 90.000000)">
                    <path d="M88.3593,26.1545 L47.3813,1.3155 C46.5673,0.5595 45.5793,0.1805 44.4173,0.1805 C43.2533,0.1805 42.2653,0.5595 41.4523,1.3155 L0.1823,26.3005" id="Fill-16" fill="#FFFFFF"></path>
                    <path d="M88.3593,26.1545 L47.3813,1.3155 C46.5673,0.5595 45.5793,0.1805 44.4173,0.1805 C43.2533,0.1805 42.2653,0.5595 41.4523,1.3155 L0.1823,26.3005" id="Stroke-17" stroke="#CED3DD" stroke-width="1.172"></path>
                </g>
                <path d="M106.3896,65.0715 C106.4166,65.1725 106.4306,65.2755 106.4346,65.3815 C106.4306,65.2755 106.4176,65.1725 106.3896,65.0715" id="Fill-19" fill="#FFFFFF"></path>
                <path d="M0.3989,65.384 C0.4019,65.278 0.4169,65.173 0.4439,65.072 C0.4159,65.173 0.4019,65.278 0.3989,65.384" id="Fill-20" fill="#FFFFFF"></path>
                <path d="M106.4355,65.3889 C106.4285,65.6049 106.3755,65.8109 106.2655,66.0029 C106.1505,66.2069 105.9755,66.3669 105.7435,66.4839 L56.3815,96.3269 C55.5685,97.0819 54.5805,97.4619 53.4165,97.4619 C52.2545,97.4619 51.2665,97.0819 50.4525,96.3269 L1.0915,66.4839 C0.8595,66.3669 0.6855,66.2069 0.5685,66.0029 C0.4585,65.8109 0.4045,65.6049 0.3985,65.3879 C0.3985,65.4009 0.3935,65.4129 0.3935,65.4259 L0.3935,118.3079 C0.3935,119.5299 0.8295,120.5619 1.7015,121.4059 C2.5745,122.2479 3.6205,122.6699 4.8415,122.6699 L101.9925,122.6699 C103.2125,122.6699 104.2595,122.2479 105.1315,121.4059 C106.0035,120.5619 106.4405,119.5299 106.4405,118.3079 L106.4405,65.4259 C106.4405,65.4129 106.4355,65.4009 106.4355,65.3889" id="Fill-21" fill="#FFFFFF"></path>
                <path d="M106.4355,65.3889 C106.4285,65.6049 106.3755,65.8109 106.2655,66.0029 C106.1505,66.2069 105.9755,66.3669 105.7435,66.4839 L56.3815,96.3269 C55.5685,97.0819 54.5805,97.4619 53.4165,97.4619 C52.2545,97.4619 51.2665,97.0819 50.4525,96.3269 L1.0915,66.4839 C0.8595,66.3669 0.6855,66.2069 0.5685,66.0029 C0.4585,65.8109 0.4045,65.6049 0.3985,65.3879" id="Stroke-22" stroke="#CCCCCC" stroke-width="1.172"></path>
                <g id="Group-25" transform="translate(9.000000, 90.000000)">
                    <path d="M88.3593,26.1545 L47.3813,1.3155 C46.5673,0.5595 45.5793,0.1805 44.4173,0.1805 C43.2533,0.1805 42.2653,0.5595 41.4523,1.3155 L0.1823,26.3005" id="Fill-23" fill="#FFFFFF"></path>
                    <path d="M88.3593,26.1545 L47.3813,1.3155 C46.5673,0.5595 45.5793,0.1805 44.4173,0.1805 C43.2533,0.1805 42.2653,0.5595 41.4523,1.3155 L0.1823,26.3005" id="Stroke-24" stroke="#CCCCCC" stroke-width="1.172"></path>
                </g>
            </g>
        </g>
    </g>
</svg>