<?xml version="1.0" encoding="UTF-8"?>
<svg width="256px" height="224px" viewBox="0 0 256 224" version="1.1" xmlns="http://www.w3.org/2000/svg" xmlns:xlink="http://www.w3.org/1999/xlink">
    <!-- Generator: Sketch 46.2 (44496) - http://www.bohemiancoding.com/sketch -->
    <title>dashboard-consulta</title>
    <desc>Created with Sketch.</desc>
    <defs></defs>
    <g id="dashboard" stroke="none" stroke-width="1" fill="none" fill-rule="evenodd">
        <g id="dashboard-consulta">
            <path d="M32,15.9998 L224,15.9998 C232.837,15.9998 240,23.1638 240,31.9998 L240,191.9998 C240,200.8368 232.837,207.9998 224,207.9998 L32,207.9998 C23.164,207.9998 16,200.8368 16,191.9998 L16,31.9998 C16,23.1638 23.164,15.9998 32,15.9998" id="Fill-2"></path>
            <g id="Group-40" transform="translate(6.000000, 17.000000)">
                <path d="M85.624,45.7307 C83.903,24.5817 65.344,8.8297 44.172,10.5487 C43.694,10.5877 43.235,10.6797 42.764,10.7347 C42.29,10.7547 41.822,10.7397 41.344,10.7787 C24.969,12.1087 11.304,24.1837 9.245,39.7067 C4.996,71.7427 -8.765,108.7097 10.25,116.9527 L19.064,112.3187 L31.198,104.4997 C36.132,113.3947 45.939,119.0787 56.746,118.2007 C70.803,117.0597 81.405,105.2457 81.288,91.3767 L81.316,91.4097 C81.223,79.0837 82.603,66.7907 85.425,54.7907 L85.252,54.7927 C85.712,51.8537 85.876,48.8267 85.624,45.7307" id="Fill-4" fill="#373C4D"></path>
                <path d="M76.3359,37.4778 L23.8489,37.4778 L23.8489,60.7208 L17.3229,110.1808 L47.9309,110.1808 L47.9309,88.8438 L56.2949,88.8438 L56.2949,88.6498 C67.5879,87.2528 76.3359,77.6518 76.3359,65.9928 C76.3359,65.9708 76.3329,65.9488 76.3329,65.9268 L76.3359,65.9268 L76.3359,37.4778 Z" id="Fill-6" fill="#FFFECF"></path>
                <path d="M76.8667,172.9285 L80.0287,190.9995 L104.9147,190.9995 C101.0657,164.1085 98.3317,113.4935 98.3317,113.4935 L98.0617,113.4935 C96.6897,105.7065 89.9257,99.7815 81.7497,99.7235 L81.7477,99.7175 L81.7187,99.7215 C81.6887,99.7215 81.6597,99.7175 81.6307,99.7175 C80.7557,99.7175 79.8967,99.7845 79.0577,99.9135 C78.1887,100.0475 77.3457,100.2615 76.5257,100.5235 L10.4397,110.7325 L10.4397,174.9995 C10.4397,183.8365 17.6037,190.9995 26.4397,190.9995 L74.0777,190.9995 C74.6077,183.1145 75.1127,179.4955 76.8667,172.9285" id="Fill-8" fill="#EF7466"></path>
                <path d="M205.4687,108.5042 L200.0887,65.2072 L200.0887,60.3952 L199.4897,60.3952 L199.4897,60.3932 C202.6867,55.5672 204.3657,49.6892 203.8607,43.4742 C202.6607,28.7322 189.7247,17.7522 174.9657,18.9502 C160.2077,20.1492 149.2167,33.0712 150.4157,47.8142 C150.6507,50.6932 151.3447,53.4222 152.4007,55.9512 C147.7497,65.4612 154.9897,84.7172 154.9897,84.7172 L155.1237,84.7132 C156.2827,87.1482 158.7477,88.8442 161.6267,88.8442 C161.9117,88.8442 162.1827,88.7922 162.4587,88.7602 L162.4587,88.8442 L173.0017,88.8442 L175.9007,112.1712 L205.4687,108.5042 Z" id="Fill-10" fill="#66809F"></path>
                <path d="M86.5102,130.3401 C86.8372,139.2711 86.1172,148.5861 83.0602,155.8391 C77.0932,169.9951 74.0782,183.0031 74.0782,191.0001" id="Stroke-12" stroke="#FFD8D7" stroke-width="1.266"></path>
                <path d="M239.7461,22.2053 C239.7461,10.1883 229.9941,0.4473 217.9641,0.4473 C211.3111,0.4473 205.3641,3.4353 201.3691,8.1313 C197.8241,7.2053 194.0791,6.8163 190.2201,7.1293 C183.7461,7.6553 177.8771,10.0193 173.0241,13.6263 C171.1941,13.2763 169.2941,13.1433 167.3471,13.3023 C155.7321,14.2453 147.0821,24.4143 148.0261,36.0173 C148.7401,44.7803 154.7251,51.8463 162.6151,54.3763 C164.7181,58.9223 167.7771,62.9003 171.5551,66.0423 C178.5151,73.3083 189.1091,80.9353 201.5321,78.3943 C209.7301,76.7183 218.8921,69.6243 223.4011,56.2303 C231.1081,54.5363 236.8791,47.6843 236.8791,39.4763 C236.8791,37.6673 236.5951,35.9253 236.0761,34.2883 C238.3921,30.8313 239.7461,26.6773 239.7461,22.2053" id="Fill-14" fill="#373C4D"></path>
                <path d="M166.8398,71.239 L166.7848,71.239 C164.4218,71.239 162.5048,69.322 162.5048,66.959 L162.5048,55.631 C162.5048,53.267 164.4218,51.351 166.7848,51.351 L166.8398,51.351 C169.2028,51.351 171.1188,53.267 171.1188,55.631 L171.1188,66.959 C171.1188,69.322 169.2028,71.239 166.8398,71.239" id="Fill-16" fill="#66809F"></path>
                <path d="M202.4218,21.7268 C196.3188,24.7138 193.5868,31.9208 196.1758,38.1978 C198.7658,44.4758 205.7878,47.6658 212.2258,45.4918" id="Stroke-18" stroke="#66809F" stroke-width="1.053"></path>
                <path d="M73.6069,118.3782 C73.6069,112.9242 69.1809,108.5032 63.7209,108.5032 C58.2609,108.5032 53.8359,112.9242 53.8359,118.3782 C53.8359,123.8322 58.2609,128.2532 63.7209,128.2532 C69.1809,128.2532 73.6069,123.8322 73.6069,118.3782" id="Fill-20" fill="#FFFFFF"></path>
                <path d="M164.2636,60.1316 L159.3406,61.8876 C159.3406,61.8876 159.6926,87.1756 159.6926,95.2536 C159.6926,103.3316 166.0216,109.3026 173.7566,109.3026" id="Stroke-22" stroke="#373C4D" stroke-width="3.156"></path>
                <path d="M83.3955,137.7512 C77.9455,143.1952 72.6035,149.2072 72.6035,149.2072 L58.8335,143.4132 C52.4795,140.7402 49.4985,133.4272 52.1745,127.0812 L54.4265,121.7412 C54.4265,121.7412 74.2535,122.6492 83.3955,137.7512" id="Fill-24" fill="#66809F"></path>
                <path d="M69.7788,118.3782 C69.7788,115.0362 67.0668,112.3272 63.7208,112.3272 C60.3758,112.3272 57.6638,115.0362 57.6638,118.3782 C57.6638,121.7202 60.3758,124.4292 63.7208,124.4292 C67.0668,124.4292 69.7788,121.7202 69.7788,118.3782" id="Fill-26" fill="#373C4D"></path>
                <path d="M173.7568,109.3025 L182.2648,109.3025" id="Stroke-28" stroke="#373C4D" stroke-width="3.156"></path>
                <path d="M65.4633,122.1956 C82.0103,129.3726 83.7553,145.8386 115.7593,145.8386 C152.9003,145.8386 171.4863,111.2176 171.4863,111.2176" id="Stroke-30" stroke="#373C4D" stroke-width="3.156"></path>
                <path d="M208.2129,100.5222 C195.6949,101.9722 166.9179,110.7952 166.9179,110.7952 C166.9249,110.8022 166.8639,110.8862 166.7759,111.0052 C161.1909,112.3292 156.0669,115.6662 152.6089,120.7982 C152.5889,120.8272 152.5749,120.8582 152.5559,120.8872 L152.5499,120.8852 L152.0309,121.7582 C151.7929,122.1492 151.5419,122.5372 151.3289,122.9372 L123.4779,169.7122 C115.3669,158.3192 83.0439,138.1032 83.0439,138.1032 L72.4959,148.9902 L105.5169,191.0002 L231.2619,190.9622 C233.5459,158.5432 233.5259,122.7322 208.2129,100.5222" id="Fill-32" fill="#FFFFFF"></path>
                <path d="M96.3896,179.8225 L109.4626,196.8955 C111.6126,199.7655 114.8066,202.1015 118.3946,202.1015 C124.2826,202.1015 141.7986,194.2225 158.5226,179.8225 L96.3896,179.8225 Z" id="Fill-34" fill="#FFFFFF"></path>
                <path d="M71.7632,147.6599 L109.4622,196.8949 C111.6122,199.7659 114.8062,202.1019 118.3942,202.1019 C127.8162,202.1019 167.0032,181.9319 185.0862,147.1519" id="Stroke-36" stroke="#66809F" stroke-width="1.078"></path>
                <path d="M77.3911,37.1311 L21.8821,29.8291 L10.0001,53.5081 L10.5301,153.7211 C21.3711,152.0991 29.3931,142.7971 29.3931,131.8461 L29.3661,54.0191 C70.3191,52.4401 77.3911,37.1311 77.3911,37.1311" id="Fill-38" fill="#373C4D"></path>
            </g>
        </g>
    </g>
</svg>