<?xml version="1.0" encoding="UTF-8"?>
<svg width="256px" height="224px" viewBox="0 0 256 224" version="1.1" xmlns="http://www.w3.org/2000/svg" xmlns:xlink="http://www.w3.org/1999/xlink">
    <!-- Generator: Sketch 46.2 (44496) - http://www.bohemiancoding.com/sketch -->
    <title>dashboard-emergency</title>
    <desc>Created with Sketch.</desc>
    <defs></defs>
    <g id="dashboard" stroke="none" stroke-width="1" fill="none" fill-rule="evenodd">
        <g id="dashboard-emergency">
            <path d="M32,16.0003 L224,16.0003 C232.837,16.0003 240,23.1633 240,32.0003 L240,192.0003 C240,200.8363 232.837,208.0003 224,208.0003 L32,208.0003 C23.164,208.0003 16,200.8363 16,192.0003 L16,32.0003 C16,23.1633 23.164,16.0003 32,16.0003" id="Fill-2"></path>
            <g id="Group-32" transform="translate(9.000000, 28.000000)">
                <path d="M40.2099,92.5764 C34.4029,95.1354 30.3489,100.9424 30.3489,107.6984 C30.3489,107.7164 23.1269,139.1644 32.4969,163.1904 C42.8589,189.7614 146.7989,137.1134 146.7989,137.1134 C146.7989,137.1134 146.7019,108.1544 146.7019,108.1364 C146.7019,101.3814 142.6479,95.1354 136.8409,92.5764 L113.1489,82.0494 C111.7619,81.4374 110.5179,80.5684 109.4629,79.5114 C103.0429,78.4734 96.4589,77.9274 89.7459,77.9274 C82.1489,77.9274 74.7159,78.6214 67.5009,79.9414 C66.5509,80.7994 65.4809,81.5264 64.2929,82.0494 L40.2099,92.5764 Z" id="Fill-4" fill="#66809F"></path>
                <path d="M124.6582,116.969 C124.2042,124.41 123.1792,131.818 121.5972,139.103" id="Stroke-6" stroke="#373C4D" stroke-width="1.172"></path>
                <path d="M226.8984,141.4817 L187.1024,123.9527 C184.0014,122.5857 181.7984,119.6447 181.3574,116.2787 L181.1044,115.4067 C171.0024,112.0377 150.9794,112.7977 143.4764,115.3657 L142.2274,115.7937 L141.9454,117.0847 C141.2804,120.1367 139.1924,122.7047 136.3594,123.9527 L96.5634,141.4817 C89.7234,144.4947 85.3034,151.2727 85.3034,158.7377 C85.3034,158.8657 85.2224,172.6147 85.2094,180.0187 L238.2524,180.0187 C238.2394,172.6617 238.1604,159.4707 238.1584,159.1777 C238.1554,151.5587 233.6314,144.4477 226.8984,141.4817" id="Fill-8" fill="#CCCCCC"></path>
                <path d="M110.4863,171.7405 C110.4863,164.9855 106.4323,158.7385 100.6253,156.1805 L69.3223,142.5065 C68.4363,142.1155 67.6133,141.6115 66.8543,141.0305 C65.2523,140.7105 63.6403,140.4445 62.0023,140.3115 C60.2593,140.1715 58.5263,139.9255 56.7803,139.7945 C54.9593,139.6575 53.1333,139.5685 51.3073,139.5215 C47.5583,139.4245 43.8063,139.5035 40.0643,139.7355 C33.5513,140.1375 27.0613,141.0195 20.6803,142.3945 C20.6073,142.4285 20.5403,142.4725 20.4663,142.5065 L7.0003,145.8835 L7.0003,164.0005 C7.0003,172.8365 14.1633,180.0005 23.0003,180.0005 L110.5053,180.0005 C110.4943,173.0475 110.4863,171.7455 110.4863,171.7405" id="Fill-10" fill="#D43649"></path>
                <path d="M109.4629,79.511 C107.6109,77.653 106.3519,75.202 106.0099,72.462 L106.0099,55.358 L113.3799,46.011 C114.3689,45.021 114.9809,43.653 114.9809,42.142 C114.9809,40.449 112.8269,38.6 111.6219,37.596 C112.4259,35.108 113.3749,29.059 113.3749,26.303 C113.3749,12.206 102.8899,0.77 88.8299,0.652 L88.8299,0.647 C88.7939,0.647 88.7569,0.649 88.7209,0.65 C88.6839,0.649 88.6479,0.647 88.6109,0.647 L88.6109,0.652 C74.5519,0.77 63.6289,12.206 63.6289,26.303 C63.6289,29.059 64.5769,35.446 65.3809,37.934 C64.1759,38.938 62.4609,40.449 62.4609,42.142 C62.4609,43.653 63.0719,45.021 64.0619,46.011 L71.4309,55.358 L71.4309,72.462 C71.0609,75.426 69.6089,78.041 67.5009,79.942 C74.7159,78.621 82.1499,77.927 89.7459,77.927 C96.4589,77.927 103.0429,78.474 109.4629,79.511" id="Fill-12" fill="#FFFFFF"></path>
                <path d="M124.7221,48.5921 C122.7751,46.3391 121.8261,43.3731 121.9771,40.3991 C121.9871,40.2011 121.9931,40.0021 121.9931,39.8021 C121.9931,35.7381 119.9111,32.1651 116.7601,30.0801 C115.7761,29.4291 115.1381,28.3731 115.1381,27.1941 L115.1381,27.1731 C115.1381,12.4661 103.2231,0.5431 88.5251,0.5431 C73.8271,0.5431 61.9121,12.4661 61.9121,27.1731 L61.9121,27.1941 C61.9131,28.3601 61.3131,29.4101 60.3381,30.0481 C57.1601,32.1291 55.0581,35.7181 55.0581,39.8021 L55.0581,39.8791 C55.0801,43.1641 54.1011,46.3651 52.0481,48.9291 C50.3311,51.0721 49.3551,53.8361 49.5111,56.8321 C49.8121,62.6341 54.5561,67.4541 60.3491,67.8431 C60.3931,67.8461 60.4371,67.8481 60.4801,67.8511 C63.5761,68.0251 66.6391,68.8561 69.1151,70.7231 C71.5431,72.5541 74.5611,73.6401 77.8371,73.6401 C79.8881,73.6401 81.8381,73.2121 83.6051,72.4431 C86.8281,71.0381 90.5141,71.0381 93.7371,72.4431 C95.5041,73.2121 97.4541,73.6401 99.5051,73.6401 C102.7031,73.6401 105.6571,72.6051 108.0551,70.8531 C110.6261,68.9741 113.7421,68.1031 116.9121,67.8251 C117.2251,67.7981 117.5411,67.7571 117.8591,67.7031 C122.8971,66.8481 126.8981,62.6621 127.4771,57.5821 C127.8701,54.1381 126.7611,50.9511 124.7221,48.5921" id="Fill-14" fill="#EF7466"></path>
                <path d="M135.4707,86.1897 C135.4707,87.7007 136.0827,89.0687 137.0727,90.0587 L142.8907,97.4607 L144.4417,116.5107 C144.4007,116.8357 144.3237,117.1477 144.2577,117.4637 C145.0757,117.4617 145.8947,117.4637 146.7137,117.4607 C157.4887,117.4227 168.2707,117.2427 179.0207,116.4667 L180.8117,97.3137 L186.3897,90.0587 C187.3787,89.0687 187.9917,87.7007 187.9917,86.1897 C187.9917,84.4987 185.8367,82.6477 184.6317,81.6437 C185.4367,79.1567 186.3847,73.1077 186.3847,70.3507 C186.3847,56.2547 175.8997,44.8187 161.8407,44.6997 L161.8407,44.6947 C161.8037,44.6947 161.7677,44.6977 161.7317,44.6977 C161.6947,44.6977 161.6577,44.6947 161.6207,44.6947 L161.6207,44.6997 C147.5617,44.8187 136.6387,56.2547 136.6387,70.3507 C136.6387,73.1077 137.5877,79.4947 138.3917,81.9827 C137.1867,82.9867 135.4707,84.4987 135.4707,86.1897" id="Fill-16" fill="#373C4D"></path>
                <path d="M18.6342,102.5979 C18.6342,104.1089 19.2462,105.4769 20.2362,106.4669 L27.6052,115.8149 L27.6052,132.9189 C27.1032,136.9449 24.6212,140.3369 21.1732,142.1379 C24.1882,141.5049 27.2272,140.9899 30.2812,140.5769 C37.7472,139.5729 45.3122,139.1599 52.8422,139.4529 C56.5252,139.5969 60.2272,139.9059 63.8812,140.3869 C64.7972,140.5079 65.7042,140.6689 66.6092,140.8459 C64.2252,138.9229 62.5832,136.1159 62.1842,132.9189 L62.1842,115.8149 L69.5532,106.4669 C70.5432,105.4769 71.1552,104.1089 71.1552,102.5979 C71.1552,100.9069 69.0012,99.0559 67.7962,98.0529 C68.6002,95.5649 69.5492,89.5159 69.5492,86.7589 C69.5492,72.6629 59.0642,61.2269 45.0042,61.1089 L45.0042,61.1029 C44.9672,61.1029 44.9312,61.1059 44.8952,61.1059 C44.8582,61.1059 44.8222,61.1029 44.7852,61.1029 L44.7852,61.1089 C30.7262,61.2269 19.8022,72.6629 19.8022,86.7589 C19.8022,89.5159 20.7512,95.9029 21.5552,98.3909 C20.3502,99.3949 18.6342,100.9069 18.6342,102.5979" id="Fill-18" fill="#B0B1B0"></path>
                <path d="M184.9424,81.9065 C184.8374,81.8165 184.7274,81.7235 184.6314,81.6435 C185.4364,79.1565 186.3844,73.1075 186.3844,70.3505 C186.3844,56.2555 175.8994,44.8185 161.8404,44.6995 L161.8404,44.6945 C161.8034,44.6945 161.7674,44.6975 161.7314,44.6975 C161.6944,44.6975 161.6584,44.6945 161.6214,44.6945 L161.6214,44.6995 C147.5624,44.8185 136.6384,56.2555 136.6384,70.3505 C136.6384,73.0815 137.5694,79.3665 138.3684,81.9045 C139.8934,81.7295 141.4934,82.4695 142.5854,83.5955 C143.8684,84.9215 144.5854,86.6825 145.2244,88.4135 C146.5434,91.9865 147.6574,95.6355 148.5584,99.3385 L148.6074,99.3325 C149.1054,101.2345 150.8834,102.6495 153.0184,102.6495 C155.4944,102.6495 157.4984,100.7525 157.5684,98.3885 L157.5934,98.3865 C157.6624,100.7515 159.6684,102.6495 162.1444,102.6495 C164.6244,102.6495 166.6304,100.7465 166.6954,98.3795 L166.7194,98.3825 C166.7864,100.7485 168.7924,102.6495 171.2704,102.6495 C173.5994,102.6495 175.4994,100.9685 175.7774,98.8025 C176.6544,95.2855 177.7164,91.8135 178.9724,88.4135 C179.6114,86.6825 180.3294,84.9215 181.6124,83.5955 C182.4934,82.6865 183.7064,82.0365 184.9424,81.9065" id="Fill-20" fill="#373C4D"></path>
                <path d="M68.3989,98.3147 C68.2939,98.2257 68.1839,98.1317 68.0879,98.0527 C68.8929,95.5647 69.8419,89.5157 69.8419,86.7587 C69.8419,72.6637 59.3569,61.2267 45.2969,61.1087 L45.2969,61.1027 C45.2599,61.1027 45.2249,61.1057 45.1879,61.1057 C45.1509,61.1057 45.1149,61.1027 45.0779,61.1027 L45.0779,61.1087 C31.0189,61.2267 20.0949,72.6637 20.0949,86.7587 C20.0949,89.4897 21.0259,95.7747 21.8249,98.3127 C23.3499,98.1377 24.9499,98.8777 26.0419,100.0037 C27.3249,101.3297 28.0429,103.0907 28.6809,104.8217 C29.9999,108.3957 31.1139,112.0437 32.0149,115.7467 L32.0639,115.7417 C32.5619,117.6427 34.3399,119.0577 36.4749,119.0577 C38.9509,119.0577 40.9549,117.1607 41.0249,114.7967 L41.0509,114.7947 C41.1189,117.1597 43.1239,119.0577 45.6009,119.0577 C48.0809,119.0577 50.0869,117.1557 50.1519,114.7877 L50.1769,114.7907 C50.2429,117.1567 52.2489,119.0577 54.7279,119.0577 C57.0559,119.0577 58.9559,117.3767 59.2339,115.2107 C60.1109,111.6937 61.1739,108.2227 62.4289,104.8217 C63.0679,103.0907 63.7859,101.3297 65.0689,100.0037 C65.9499,99.0947 67.1619,98.4457 68.3989,98.3147" id="Fill-22" fill="#373C4D"></path>
                <path d="M177.5517,121.7024 C167.5677,120.4624 157.4297,120.4674 147.4467,121.7174" id="Stroke-24" stroke="#999999" stroke-width="1.172"></path>
                <path d="M40.5009,158.9153 C40.5009,149.9793 33.2619,142.7353 24.3319,142.7353 C15.4009,142.7353 8.1619,149.9793 8.1619,158.9153 C8.1619,167.8513 15.4009,175.0953 24.3319,175.0953 C33.2619,175.0953 40.5009,167.8513 40.5009,158.9153" id="Fill-26" fill="#85374B"></path>
                <path d="M81.4946,158.9153 C81.4946,149.9793 74.2556,142.7353 65.3256,142.7353 C56.3946,142.7353 49.1556,149.9793 49.1556,158.9153 C49.1556,167.8513 56.3946,175.0953 65.3256,175.0953 C74.2556,175.0953 81.4946,167.8513 81.4946,158.9153" id="Fill-28" fill="#85374B"></path>
                <path d="M85.937,132.3987 L85.94,132.3967 C76.745,121.1447 73.751,106.6797 72.921,92.3817 L72.921,88.1817 L72.894,88.1817 C72.321,73.1987 60.008,61.2247 44.894,61.2247 C29.779,61.2247 17.466,73.1987 16.893,88.1817 L16.814,88.1817 L16.814,95.8517 C15.705,108.9977 12.494,122.0547 4.042,132.3967 L4.045,132.3987 C1.815,135.1277 0.476,138.6117 0.476,142.4107 C0.476,151.1517 7.558,158.2397 16.294,158.2397 C16.722,158.2397 17.143,158.2087 17.562,158.1747 C20.383,170.6777 31.545,180.0187 44.894,180.0187 C58.246,180.0187 69.409,170.6727 72.228,158.1657 C72.709,158.2097 73.195,158.2397 73.687,158.2397 C82.424,158.2397 89.506,151.1517 89.506,142.4107 C89.506,138.6117 88.166,135.1277 85.937,132.3987" id="Fill-30" fill="#85374B"></path>
            </g>
        </g>
    </g>
</svg>