<?xml version="1.0" encoding="UTF-8"?>
<svg width="256px" height="224px" viewBox="0 0 256 224" version="1.1" xmlns="http://www.w3.org/2000/svg" xmlns:xlink="http://www.w3.org/1999/xlink">
    <!-- Generator: Sketch 46.2 (44496) - http://www.bohemiancoding.com/sketch -->
    <title>dashboard-exame</title>
    <desc>Created with Sketch.</desc>
    <defs></defs>
    <g id="dashboard" stroke="none" stroke-width="1" fill="none" fill-rule="evenodd">
        <g id="dashboard-exame">
            <path d="M32,15.9998 L224,15.9998 C232.837,15.9998 240,23.1638 240,31.9998 L240,191.9998 C240,200.8368 232.837,207.9998 224,207.9998 L32,207.9998 C23.164,207.9998 16,200.8368 16,191.9998 L16,31.9998 C16,23.1638 23.164,15.9998 32,15.9998" id="Fill-2"></path>
            <g id="Group-38" transform="translate(49.000000, 43.000000)">
                <path d="M27.7182,43.6316 L4.1562,46.9786 L15.7512,128.2746 L15.8002,128.2676 C17.1792,134.1666 22.8722,138.1386 28.9952,137.2686 C35.1182,136.3986 39.4742,130.9996 39.1502,124.9516 L39.3142,124.9276 L27.7182,43.6316 Z" id="Fill-4" fill="#FFFFFF"></path>
                <path d="M20.521,126.0168 L20.473,126.0238 L7.706,36.5178 L2.764,37.2198 L15.53,126.7258 L15.579,126.7188 C17.083,133.4858 22.872,138.1378 28.996,137.2678 C29.846,137.1478 30.65,136.9058 31.421,136.5958 C26.293,136.0798 21.816,131.8438 20.521,126.0168" id="Fill-6" fill="#FFFECF"></path>
                <path d="M21.3364,34.138 L7.6294,36.084 L21.1304,130.738 L21.1584,130.734 C21.9614,134.165 25.2724,136.475 28.8344,135.97 C32.3974,135.464 34.9304,132.323 34.7424,128.804 L34.8374,128.791 L21.3364,34.138 Z" id="Fill-8" fill="#EBEBEB"></path>
                <polygon id="Fill-10" fill="#66809F" points="0.9048 36.0037 0.7158 36.0307 2.2728 46.9447 29.5168 43.0747 27.9598 32.1607 27.9038 32.1697"></polygon>
                <path d="M27.6538,78.4265 L13.6448,78.3845 L20.6918,127.6655 L20.7198,127.6615 C21.5228,131.0935 24.8348,133.4035 28.3968,132.8975 C31.9588,132.3915 34.4928,129.2515 34.3038,125.7325 L34.3988,125.7185 L27.6538,78.4265 Z" id="Fill-12" fill="#D43649"></path>
                <path d="M26.3169,33.5784 L2.6629,36.9374 L5.6019,57.5424 L5.7249,57.5244 C6.7029,60.1764 12.0429,61.5994 18.1759,60.7284 C24.3109,59.8574 29.0409,57.0044 29.2379,54.1854 L29.2559,54.1824 L26.3169,33.5784 Z" id="Fill-14" fill="#66809F"></path>
                <path d="M4.1455,47.3445 L27.8475,43.9785" id="Stroke-16" stroke="#373C4D" stroke-width="0.999"></path>
                <path d="M29.1172,53.5554 L23.3282,54.3774" id="Stroke-18" stroke="#373C4D" stroke-width="0.999"></path>
                <path d="M16.917,55.2883 L5.561,56.9013" id="Stroke-20" stroke="#373C4D" stroke-width="0.999"></path>
                <path d="M132.7324,128.7927 L55.1724,116.7627 C50.0884,115.9747 46.6074,111.2227 47.3984,106.1497 L62.6304,8.3577 C63.4204,3.2847 68.1824,-0.1883 73.2664,0.5997 L150.8264,12.6297 C155.9104,13.4187 159.3914,18.1697 158.6014,23.2427 L143.3694,121.0347 C142.5784,126.1077 137.8164,129.5807 132.7324,128.7927" id="Fill-22" fill="#373C4D"></path>
                <path d="M86.9155,5.9924 C88.5185,6.2414 89.6165,7.7394 89.3665,9.3394 C89.1175,10.9394 87.6165,12.0344 86.0135,11.7854 C84.4095,11.5364 83.3115,10.0384 83.5615,8.4384 C83.8105,6.8384 85.3115,5.7434 86.9155,5.9924" id="Fill-24" fill="#5F819D"></path>
                <path d="M74.4023,9.9846 C72.7983,9.7356 71.7013,8.2376 71.9503,6.6376 C72.2003,5.0376 73.7013,3.9426 75.3043,4.1916 C76.9083,4.4406 78.0053,5.9386 77.7563,7.5386 C77.5063,9.1386 76.0063,10.2336 74.4023,9.9846" id="Fill-26" fill="#5F819D"></path>
                <path d="M60.3374,92.6458 L69.0454,93.9968 C70.0084,94.1458 70.6664,95.0448 70.5164,96.0048 C70.3674,96.9638 69.4664,97.6218 68.5044,97.4728 L59.7954,96.1218 C58.8334,95.9728 58.1754,95.0728 58.3254,94.1138 C58.4744,93.1548 59.3754,92.4968 60.3374,92.6458" id="Fill-28" fill="#5F819D"></path>
                <path d="M63.7968,108.6082 L57.9908,107.7082 C57.0288,107.5582 56.3708,106.6592 56.5208,105.6992 C56.6698,104.7402 57.5698,104.0832 58.5328,104.2322 L64.3388,105.1322 C65.3008,105.2812 65.9588,106.1812 65.8088,107.1402 C65.6598,108.0992 64.7588,108.7572 63.7968,108.6082" id="Fill-30" fill="#5F819D"></path>
                <path d="M70.5044,103.7156 L58.8934,101.9146 C57.9314,101.7656 57.2734,100.8656 57.4224,99.9066 C57.5724,98.9476 58.4724,98.2896 59.4354,98.4386 L71.0464,100.2396 C72.0084,100.3886 72.6664,101.2886 72.5164,102.2476 C72.3674,103.2066 71.4664,103.8646 70.5044,103.7156" id="Fill-32" fill="#5F819D"></path>
                <path d="M111.4887,96.8147 C105.7687,95.9277 102.8647,94.6887 103.0927,93.2317 C103.4417,90.9857 107.8057,87.2447 112.8577,88.0277 C115.4907,88.4367 117.9317,88.2017 119.8927,88.0107 C120.5827,87.9437 121.2497,87.8787 121.7867,87.8657 C120.7877,91.0447 115.6107,97.4537 111.4887,96.8147 M89.7857,93.4487 C85.6617,92.8087 82.6767,85.1247 82.6957,81.7987 C83.1887,81.9727 83.8087,82.2387 84.4537,82.5137 C86.2647,83.2887 88.5187,84.2527 91.1547,84.6617 C96.2057,85.4447 99.2247,90.3337 98.8757,92.5777 C98.6487,94.0337 95.5057,94.3357 89.7857,93.4487 M123.1297,83.6787 C122.0987,83.5187 120.8857,83.6347 119.4807,83.7727 C117.6687,83.9487 115.6147,84.1467 113.5127,83.8207 C110.1887,83.3047 106.8907,84.1747 104.2587,85.7437 L105.3667,78.6287 L107.5987,78.9757 C108.7617,79.1557 109.8537,78.3587 110.0347,77.1987 C110.2157,76.0367 109.4177,74.9477 108.2537,74.7677 L106.0217,74.4217 L106.4587,71.6167 L108.6907,71.9627 C109.8547,72.1437 110.9457,71.3467 111.1267,70.1867 C111.3077,69.0247 110.5097,67.9357 109.3457,67.7557 L107.1137,67.4097 L108.4367,58.9187 C111.1417,60.5647 115.0667,61.7567 119.0747,62.3787 C120.2387,62.5597 121.3297,61.7627 121.5107,60.6017 C121.6927,59.4407 120.8947,58.3517 119.7307,58.1707 C113.1347,57.1477 109.6657,54.9387 109.1887,54.0897 L109.5107,52.0227 L129.1047,55.0617 C130.2687,55.2417 131.3597,54.4477 131.5397,53.2847 C131.7217,52.1217 130.9237,51.0347 129.7597,50.8547 L110.1667,47.8157 L111.2287,40.9937 C116.6267,44.0227 126.5717,45.7977 130.4527,46.3997 C131.6167,46.5807 132.7077,45.7857 132.8897,44.6237 C133.0707,43.4607 132.2727,42.3737 131.1097,42.1927 C119.7787,40.4357 113.2247,37.6727 111.9367,36.4497 L112.8207,30.7727 C115.9527,33.7407 121.1457,36.0837 127.4627,37.0637 C128.6267,37.2447 129.7177,36.4497 129.8997,35.2867 C130.0797,34.1247 129.2817,33.0367 128.1177,32.8567 C119.3887,31.5027 113.4037,27.0297 113.8857,23.9327 C114.0677,22.7707 113.2707,21.6827 112.1057,21.5027 C110.9407,21.3217 109.8507,22.1157 109.6697,23.2787 C109.1877,26.3747 102.1237,28.8247 93.3947,27.4707 C92.2297,27.2907 91.1397,28.0847 90.9587,29.2477 C90.7777,30.4107 91.5747,31.4977 92.7397,31.6777 C99.0567,32.6577 104.7177,31.9977 108.6047,30.1187 L107.7197,35.7957 C106.1207,36.5717 99.0367,37.2187 87.7057,35.4607 C86.5397,35.2807 85.4507,36.0747 85.2697,37.2377 C85.0887,38.3997 85.8847,39.4877 87.0507,39.6687 C90.9307,40.2707 100.9477,41.5907 107.0117,40.3397 L105.9497,47.1617 L86.3567,44.1227 C85.1907,43.9417 84.1017,44.7357 83.9207,45.8987 C83.7387,47.0617 84.5357,48.1487 85.7007,48.3297 L105.2947,51.3687 L104.9727,53.4357 C104.2607,54.0987 100.2807,55.1547 93.6867,54.1317 C92.5217,53.9517 91.4317,54.7477 91.2517,55.9087 C91.0707,57.0697 91.8667,58.1587 93.0317,58.3387 C97.0387,58.9607 101.1427,59.0137 104.2197,58.2647 L102.8977,66.7547 L100.6647,66.4087 C99.4997,66.2287 98.4097,67.0237 98.2287,68.1857 C98.0477,69.3467 98.8437,70.4357 100.0097,70.6167 L102.2427,70.9627 L101.8057,73.7677 L99.5717,73.4207 C98.4057,73.2407 97.3157,74.0367 97.1347,75.1977 C96.9547,76.3587 97.7507,77.4477 98.9157,77.6287 L101.1487,77.9747 L100.0407,85.0887 C98.0087,82.7977 95.1307,80.9697 91.8077,80.4547 C89.7057,80.1277 87.8077,79.3157 86.1347,78.5987 C84.8397,78.0437 83.7187,77.5657 82.6877,77.4067 C80.4737,77.0627 78.8777,78.2667 78.5217,80.5477 C77.8207,85.0517 81.6437,96.4947 89.1297,97.6557 C91.3217,97.9957 95.1717,98.5917 98.2877,97.8867 C98.5287,98.6267 99.1597,99.2107 99.9817,99.3387 C100.8037,99.4667 101.5837,99.0997 102.0377,98.4687 C104.7947,100.0837 108.6417,100.6827 110.8337,101.0227 C118.3207,102.1837 125.4437,92.4377 126.1447,87.9347 C126.4997,85.6527 125.3447,84.0227 123.1297,83.6787" id="Fill-34" fill="#FFFFFF"></path>
                <path d="M143.539,34.3533 L146.246,16.9743 C146.395,16.0153 147.296,15.3573 148.259,15.5063 C149.221,15.6563 149.879,16.5553 149.729,17.5153 L147.022,34.8943 C146.873,35.8533 145.973,36.5103 145.01,36.3613 C144.048,36.2123 143.39,35.3123 143.539,34.3533" id="Fill-36" fill="#66809F"></path>
            </g>
        </g>
    </g>
</svg>