<?xml version="1.0" encoding="UTF-8"?>
<svg width="96px" height="96px" viewBox="0 0 96 96" version="1.1" xmlns="http://www.w3.org/2000/svg" xmlns:xlink="http://www.w3.org/1999/xlink">
    <!-- Generator: Sketch 45.2 (43514) - http://www.bohemiancoding.com/sketch -->
    <title>Artboard</title>
    <desc>Created with Sketch.</desc>
    <defs></defs>
    <g id="Page-1" stroke="none" stroke-width="1" fill="none" fill-rule="evenodd">
        <g id="Artboard" fill="#66809F">
            <path d="M51.047,56.693 C47.486,56.693 44.589,53.797 44.589,50.235 C44.589,46.674 47.486,43.778 51.047,43.778 C51.238,43.778 51.426,43.788 51.613,43.804 C51.67,44.148 51.703,44.5 51.703,44.86 C51.703,45.015 51.696,45.169 51.685,45.321 C51.672,45.5 51.651,45.677 51.625,45.852 C51.623,45.86 51.622,45.869 51.621,45.878 C51.566,46.225 51.482,46.562 51.374,46.888 C51.368,46.904 51.363,46.921 51.358,46.937 C51.25,47.254 51.117,47.559 50.964,47.851 C50.951,47.876 50.938,47.9 50.925,47.923 C50.772,48.206 50.599,48.476 50.407,48.731 C50.385,48.76 50.362,48.789 50.339,48.818 C50.255,48.927 50.168,49.033 50.076,49.135 C50.062,49.151 50.048,49.169 50.034,49.185 C49.931,49.298 49.824,49.407 49.714,49.512 C49.684,49.542 49.653,49.57 49.622,49.598 C49.531,49.682 49.438,49.764 49.342,49.842 C49.315,49.865 49.289,49.888 49.261,49.91 C48.45,50.556 47.481,51.012 46.421,51.209 C46.676,52.225 47.258,53.113 48.049,53.754 C48.959,53.466 49.805,53.039 50.571,52.504 L50.574,52.508 C50.625,52.473 50.673,52.433 50.724,52.397 C50.78,52.356 50.836,52.315 50.89,52.273 C50.996,52.193 51.099,52.11 51.201,52.025 C51.25,51.984 51.3,51.943 51.349,51.901 C51.458,51.806 51.564,51.709 51.669,51.609 C51.706,51.573 51.744,51.539 51.781,51.503 C51.912,51.374 52.039,51.241 52.162,51.105 C52.17,51.096 52.178,51.089 52.186,51.08 C52.459,50.776 52.711,50.454 52.943,50.116 C52.95,50.106 52.957,50.094 52.964,50.084 C53.069,49.928 53.17,49.77 53.266,49.609 C53.281,49.584 53.295,49.559 53.309,49.534 C53.397,49.383 53.481,49.23 53.56,49.074 C53.574,49.046 53.589,49.017 53.603,48.989 C53.68,48.832 53.754,48.673 53.823,48.512 C53.834,48.486 53.845,48.46 53.856,48.433 C53.927,48.263 53.993,48.09 54.054,47.914 C54.06,47.898 54.066,47.881 54.072,47.865 C54.395,46.922 54.573,45.911 54.573,44.86 C54.573,44.849 54.572,44.839 54.572,44.829 C56.336,45.983 57.505,47.975 57.505,50.235 C57.505,53.797 54.608,56.693 51.047,56.693 L51.047,56.693 Z M55.591,35 L55.591,38.164 L60.887,38.164 L56.428,42.624 C55.658,42.078 54.802,41.645 53.885,41.351 C53.56,40.555 53.13,39.814 52.609,39.145 C52.609,39.144 52.608,39.143 52.608,39.143 C52.503,39.009 52.396,38.878 52.285,38.75 C52.28,38.746 52.276,38.741 52.272,38.736 C51.818,38.215 51.307,37.745 50.749,37.336 C50.746,37.333 50.743,37.331 50.741,37.329 C50.611,37.235 50.478,37.143 50.344,37.055 C50.32,37.04 50.297,37.025 50.274,37.01 C50.157,36.935 50.039,36.863 49.92,36.793 C49.888,36.775 49.857,36.757 49.825,36.739 C49.709,36.673 49.591,36.61 49.471,36.548 C49.44,36.532 49.408,36.516 49.376,36.5 C49.245,36.435 49.112,36.373 48.978,36.314 C48.959,36.306 48.939,36.296 48.92,36.288 C48.609,36.154 48.29,36.037 47.963,35.937 C47.921,35.924 47.879,35.913 47.836,35.901 C47.718,35.867 47.6,35.835 47.48,35.805 C47.423,35.791 47.366,35.778 47.309,35.765 C47.201,35.741 47.093,35.718 46.985,35.697 C46.922,35.686 46.86,35.674 46.797,35.664 C46.689,35.646 46.581,35.63 46.473,35.615 C46.41,35.607 46.347,35.599 46.284,35.591 C46.168,35.579 46.05,35.569 45.933,35.56 C45.878,35.556 45.823,35.551 45.768,35.548 C45.595,35.538 45.421,35.532 45.246,35.532 C45.1,35.532 44.955,35.537 44.811,35.544 C44.766,35.546 44.722,35.548 44.678,35.551 C44.575,35.557 44.474,35.565 44.372,35.574 C44.325,35.579 44.277,35.584 44.23,35.589 C44.122,35.6 44.014,35.614 43.907,35.63 C43.873,35.635 43.839,35.639 43.804,35.644 C43.666,35.666 43.527,35.691 43.391,35.718 C43.357,35.725 43.323,35.733 43.289,35.74 C43.185,35.763 43.082,35.786 42.98,35.812 C42.933,35.824 42.886,35.836 42.84,35.848 C42.747,35.874 42.654,35.9 42.562,35.927 C42.519,35.941 42.475,35.953 42.432,35.967 C42.309,36.006 42.187,36.047 42.066,36.091 C42.049,36.097 42.033,36.103 42.017,36.11 C41.898,36.153 41.78,36.2 41.663,36.249 C41.618,36.268 41.574,36.287 41.529,36.307 C41.447,36.343 41.365,36.38 41.285,36.418 C41.237,36.44 41.19,36.463 41.143,36.485 C41.059,36.526 40.977,36.569 40.895,36.613 C40.856,36.633 40.816,36.653 40.777,36.675 C40.664,36.737 40.551,36.802 40.44,36.869 C40.399,36.894 40.359,36.92 40.318,36.946 C40.244,36.992 40.171,37.038 40.099,37.086 C40.05,37.118 40.003,37.151 39.955,37.184 C39.89,37.229 39.826,37.275 39.762,37.321 C39.715,37.355 39.669,37.389 39.623,37.424 C39.548,37.481 39.475,37.539 39.402,37.597 C39.343,37.645 39.285,37.693 39.228,37.741 C39.159,37.799 39.091,37.858 39.025,37.918 C38.978,37.96 38.932,38.003 38.886,38.046 C38.834,38.094 38.783,38.143 38.733,38.192 C38.685,38.238 38.638,38.284 38.592,38.332 C38.543,38.381 38.496,38.432 38.448,38.483 C38.403,38.53 38.359,38.576 38.316,38.624 C38.235,38.714 38.157,38.804 38.08,38.896 C38.037,38.948 37.995,39.003 37.952,39.056 C37.912,39.107 37.872,39.157 37.832,39.208 C37.789,39.265 37.747,39.322 37.705,39.38 C37.668,39.43 37.632,39.481 37.597,39.531 C37.555,39.59 37.514,39.649 37.474,39.709 C37.44,39.761 37.406,39.815 37.373,39.867 C37.304,39.975 37.238,40.085 37.173,40.195 C37.143,40.248 37.112,40.3 37.083,40.353 C37.047,40.418 37.012,40.485 36.977,40.551 C36.95,40.603 36.923,40.655 36.897,40.707 C36.863,40.775 36.83,40.843 36.797,40.912 C36.773,40.964 36.75,41.018 36.726,41.07 C36.694,41.14 36.663,41.209 36.634,41.279 C36.61,41.336 36.589,41.394 36.567,41.45 C36.15,42.507 35.918,43.656 35.918,44.86 C35.918,46.796 36.514,48.592 37.528,50.084 L34.204,53.408 L31.237,50.441 L29,52.678 L31.966,55.645 L29.721,57.891 L31.958,60.129 L34.204,57.883 L37.115,60.794 L39.353,58.556 L36.442,55.645 L39.724,52.363 C39.938,52.521 40.156,52.672 40.384,52.812 C40.154,51.928 40.032,51.002 40.032,50.047 C40.032,49.614 40.06,49.188 40.109,48.768 C39.28,47.682 38.788,46.327 38.788,44.86 C38.788,44.176 38.896,43.518 39.093,42.899 C39.143,42.742 39.2,42.588 39.262,42.436 C39.265,42.427 39.268,42.419 39.272,42.411 C39.333,42.263 39.399,42.117 39.471,41.975 C39.477,41.962 39.484,41.948 39.491,41.935 C39.636,41.651 39.801,41.38 39.985,41.122 C39.995,41.108 40.005,41.093 40.015,41.08 C40.107,40.953 40.202,40.83 40.302,40.711 C40.31,40.702 40.318,40.693 40.325,40.685 C40.424,40.568 40.528,40.454 40.635,40.344 C40.641,40.338 40.646,40.332 40.652,40.327 C40.76,40.217 40.873,40.112 40.988,40.01 C41.005,39.995 41.023,39.98 41.04,39.965 C41.157,39.864 41.277,39.767 41.401,39.674 C41.403,39.673 41.404,39.672 41.405,39.672 C41.527,39.581 41.653,39.496 41.781,39.414 C41.801,39.401 41.82,39.389 41.84,39.376 C41.967,39.297 42.097,39.222 42.23,39.152 C42.252,39.14 42.274,39.13 42.296,39.118 C42.425,39.051 42.557,38.988 42.692,38.929 C42.701,38.926 42.709,38.922 42.717,38.918 C42.857,38.859 42.999,38.805 43.142,38.756 C43.172,38.746 43.2,38.735 43.23,38.726 C43.373,38.679 43.517,38.636 43.664,38.599 C43.684,38.594 43.703,38.59 43.722,38.585 C43.859,38.552 43.998,38.524 44.138,38.499 C44.164,38.495 44.19,38.489 44.215,38.485 C44.365,38.461 44.517,38.443 44.67,38.429 C44.702,38.426 44.735,38.424 44.767,38.422 C44.925,38.41 45.085,38.402 45.246,38.402 C45.382,38.402 45.517,38.408 45.651,38.416 C45.688,38.419 45.725,38.422 45.761,38.424 C45.868,38.433 45.974,38.444 46.079,38.458 C46.108,38.462 46.137,38.464 46.166,38.469 C46.439,38.508 46.708,38.565 46.969,38.637 L47.016,38.651 C47.562,38.807 48.079,39.033 48.556,39.319 C48.556,39.319 48.557,39.319 48.558,39.319 C49.259,39.74 49.874,40.29 50.37,40.935 C45.542,41.284 41.719,45.32 41.719,50.235 C41.719,55.379 45.904,59.563 51.047,59.563 C56.19,59.563 60.374,55.379 60.374,50.235 C60.374,48.236 59.739,46.383 58.664,44.862 L63.08,40.446 L63.08,45.6 L66.245,45.6 L66.245,35 L55.591,35 Z" id="Fill-5"></path>
        </g>
    </g>
</svg>