<?xml version="1.0" encoding="UTF-8"?>
<svg width="96px" height="96px" viewBox="0 0 96 96" version="1.1" xmlns="http://www.w3.org/2000/svg" xmlns:xlink="http://www.w3.org/1999/xlink">
    <!-- Generator: Sketch 45.2 (43514) - http://www.bohemiancoding.com/sketch -->
    <title>Artboard Copy 2</title>
    <desc>Created with Sketch.</desc>
    <defs></defs>
    <g id="Page-1" stroke="none" stroke-width="1" fill="none" fill-rule="evenodd">
        <g id="Artboard-Copy-2" fill="#66809F">
            <path d="M50.3511,50.9514 C49.6291,51.6734 48.6811,52.0344 47.7331,52.0344 C46.7851,52.0344 45.8371,51.6734 45.1161,50.9514 L42.6971,48.5334 L32.8621,58.3684 C33.1391,58.4634 33.4291,58.5254 33.7361,58.5254 L61.7301,58.5254 C62.0381,58.5254 62.3281,58.4634 62.6041,58.3684 L52.7691,48.5334 L50.3511,50.9514 Z M31.4351,37.2714 C31.1631,37.6964 31.0001,38.1974 31.0001,38.7364 L31.0001,55.7894 C31.0001,56.2784 31.1411,56.7334 31.3691,57.1324 L41.3321,47.1684 L31.4351,37.2714 Z M48.9861,49.5864 L62.4601,36.1124 C62.2261,36.0464 61.9841,36.0004 61.7301,36.0004 L33.7361,36.0004 C33.4821,36.0004 33.2401,36.0464 33.0061,36.1124 L46.4811,49.5864 C47.1461,50.2504 48.3211,50.2504 48.9861,49.5864 L48.9861,49.5864 Z M64.0321,37.2714 L54.1341,47.1684 L64.0991,57.1324 C64.3261,56.7334 64.4671,56.2784 64.4671,55.7894 L64.4671,38.7364 C64.4671,38.1974 64.3041,37.6964 64.0321,37.2714 L64.0321,37.2714 Z" id="Fill-1"></path>
        </g>
    </g>
</svg>