<?xml version="1.0" encoding="UTF-8"?>
<svg width="96px" height="96px" viewBox="0 0 96 96" version="1.1" xmlns="http://www.w3.org/2000/svg" xmlns:xlink="http://www.w3.org/1999/xlink">
    <!-- Generator: Sketch 46.2 (44496) - http://www.bohemiancoding.com/sketch -->
    <title>orange-bell</title>
    <desc>Created with Sketch.</desc>
    <defs></defs>
    <g id="tab-navigation" stroke="none" stroke-width="1" fill="none" fill-rule="evenodd">
        <g id="orange-bell" fill="#EF7466">
            <path d="M61.9781,56.8435 L61.9781,45.1235 C61.9781,38.5785 57.4481,33.1015 51.3261,31.6525 L51.3261,30.2015 C51.3261,28.4295 49.8961,26.9995 48.1241,26.9995 C46.3521,26.9995 44.9211,28.4295 44.9211,30.2015 L44.9211,31.6525 C38.8001,33.1015 34.2691,38.5785 34.2691,45.1235 L34.2691,56.8435 L29.9991,61.1135 L29.9991,63.2475 L66.2481,63.2475 L66.2481,61.1135 L61.9781,56.8435 Z M44.1171,65.2815 C44.1171,67.4965 45.9091,69.2885 48.1241,69.2885 C50.3381,69.2885 52.1311,67.4965 52.1311,65.2815 L44.1171,65.2815 Z" id="Fill-1"></path>
        </g>
    </g>
</svg>