<?xml version="1.0" encoding="UTF-8"?>
<svg width="96px" height="96px" viewBox="0 0 96 96" version="1.1" xmlns="http://www.w3.org/2000/svg" xmlns:xlink="http://www.w3.org/1999/xlink">
    <!-- Generator: Sketch 46.2 (44496) - http://www.bohemiancoding.com/sketch -->
    <title>red-search</title>
    <desc>Created with Sketch.</desc>
    <defs></defs>
    <g id="generic" stroke="none" stroke-width="1" fill="none" fill-rule="evenodd">
        <g id="red-search" fill="#EF7466">
            <path d="M43.3526687,53.672956 C37.0883387,53.672956 32.0315904,48.6163522 32.0315904,42.3522013 C32.0315904,36.0880503 37.0883387,31.0314465 43.3526687,31.0314465 C49.6157409,31.0314465 54.6737471,36.0880503 54.6737471,42.3522013 C54.6737471,48.6163522 49.6157409,53.672956 43.3526687,53.672956 L43.3526687,53.672956 Z M58.4474399,53.672956 L56.4599617,53.672956 L55.7542811,52.9937107 C58.2197604,50.1257862 59.7053375,46.4025157 59.7053375,42.3522013 C59.7053375,33.3207547 52.3843735,26 43.3526687,26 C34.3197061,26 27,33.3207547 27,42.3522013 C27,51.3836478 34.3197061,58.7044025 43.3526687,58.7044025 C47.403099,58.7044025 51.1264759,57.2201258 53.9944824,54.754717 L54.6737471,55.4591195 L54.6737471,57.4465409 L67.2527231,70 L71,66.2515723 L58.4474399,53.672956 Z" id="Fill-1"></path>
        </g>
    </g>
</svg>