<?xml version="1.0" encoding="UTF-8"?>
<svg width="96px" height="96px" viewBox="0 0 96 96" version="1.1" xmlns="http://www.w3.org/2000/svg" xmlns:xlink="http://www.w3.org/1999/xlink">
    <!-- Generator: Sketch 46.2 (44496) - http://www.bohemiancoding.com/sketch -->
    <title>chat-stethoscope</title>
    <desc>Created with Sketch.</desc>
    <defs></defs>
    <g id="generic" stroke="none" stroke-width="1" fill="none" fill-rule="evenodd">
        <g id="chat-stethoscope" fill="#D43649">
            <path d="M36,40 L60,40 L60,36 L36,36 L36,40 Z M36,46 L60,46 L60,42 L36,42 L36,46 Z M36,52 L60,52 L60,48 L36,48 L36,52 Z M64,28 L32,28 C29.8,28 28.02,29.8 28.02,32 L28,68 L36,60 L64,60 C66.2,60 68,58.2 68,56 L68,32 C68,29.8 66.2,28 64,28 L64,28 Z" id="Page-1"></path>
        </g>
    </g>
</svg>