<?xml version="1.0" encoding="UTF-8"?>
<svg width="96px" height="96px" viewBox="0 0 96 96" version="1.1" xmlns="http://www.w3.org/2000/svg" xmlns:xlink="http://www.w3.org/1999/xlink">
    <!-- Generator: Sketch 46.2 (44496) - http://www.bohemiancoding.com/sketch -->
    <title>red-addagenda</title>
    <desc>Created with Sketch.</desc>
    <defs></defs>
    <g id="tab-navigation" stroke="none" stroke-width="1" fill="none" fill-rule="evenodd">
        <g id="red-addagenda" fill="#D43649">
            <path d="M33.166,64.4997 L62.333,64.4997 L62.333,40.5827 L33.166,40.5827 L33.166,64.4997 Z M62.333,31.1667 L60.25,31.1667 L60.25,26.9997 L56.083,26.9997 L56.083,31.1667 L39.417,31.1667 L39.417,26.9997 L35.25,26.9997 L35.25,31.1667 L33.167,31.1667 C30.854,31.1667 29.021,33.0417 29.021,35.3327 L29,64.4997 C29,66.7917 30.854,68.6667 33.167,68.6667 L62.333,68.6667 C64.625,68.6667 66.5,66.7917 66.5,64.4997 L66.5,35.3327 C66.5,33.0417 64.625,31.1667 62.333,31.1667 L62.333,31.1667 Z" id="Fill-1"></path>
            <polygon id="Fill-3" points="55.8779 54.6769 49.7819 54.6769 49.7819 60.7729 45.7179 60.7729 45.7179 54.6769 39.6229 54.6769 39.6229 50.5929 45.7179 50.5929 45.7179 44.4969 49.7819 44.4969 49.7819 50.5929 55.8779 50.5929"></polygon>
        </g>
    </g>
</svg>