<?xml version="1.0" encoding="UTF-8"?>
<svg width="96px" height="96px" viewBox="0 0 96 96" version="1.1" xmlns="http://www.w3.org/2000/svg" xmlns:xlink="http://www.w3.org/1999/xlink">
    <!-- Generator: Sketch 46.2 (44496) - http://www.bohemiancoding.com/sketch -->
    <title>red-stethoscope</title>
    <desc>Created with Sketch.</desc>
    <defs></defs>
    <g id="generic" stroke="none" stroke-width="1" fill="none" fill-rule="evenodd">
        <g id="red-stethoscope" fill="#D43649">
            <path d="M62.974,58.716 C65.177,58.716 66.907,60.442 66.907,62.643 C66.907,64.843 65.177,66.569 62.974,66.569 C60.771,66.569 59.042,64.843 59.042,62.643 C59.042,60.442 60.771,58.716 62.974,58.716 L62.974,58.716 Z M32.078,20 C29.269,20 27,22.351 27,25.155 L27,38.445 L27,40.085 C27,48.716 33.417,55.857 41.714,56.784 L41.714,65.187 C41.714,71.66 46.791,76.967 53.122,76.967 C58.07,76.967 62.262,73.753 63.861,69.265 C67.123,68.811 69.694,66.008 69.694,62.641 C69.694,58.952 66.669,55.931 62.974,55.931 C59.301,55.931 56.277,58.951 56.277,62.641 C56.277,65.316 57.854,67.625 60.144,68.682 C58.891,71.443 56.234,73.321 53.122,73.321 C48.824,73.321 45.366,69.76 45.366,65.187 L45.366,56.784 C53.662,55.857 60.079,48.716 60.079,40.085 L60.079,38.445 L60.079,25.156 C60.079,22.351 57.789,20 54.981,20 L51.718,20 L51.718,23.646 L54.981,23.646 C55.78,23.646 56.428,24.272 56.428,25.156 L56.428,38.446 L56.428,40.086 C56.428,47.401 50.703,53.226 43.551,53.226 C36.378,53.226 30.653,47.401 30.653,40.086 L30.653,38.446 L30.653,25.156 C30.653,24.272 31.279,23.646 32.078,23.646 L35.363,23.646 L35.363,20 L32.078,20 Z" id="Fill-1-Copy"></path>
        </g>
    </g>
</svg>