<?xml version="1.0" encoding="UTF-8"?>
<svg width="192px" height="192px" viewBox="0 0 192 192" version="1.1" xmlns="http://www.w3.org/2000/svg" xmlns:xlink="http://www.w3.org/1999/xlink">
    <!-- Generator: Sketch 46.2 (44496) - http://www.bohemiancoding.com/sketch -->
    <title>specialty-derma</title>
    <desc>Created with Sketch.</desc>
    <defs></defs>
    <g id="specialties" stroke="none" stroke-width="1" fill="none" fill-rule="evenodd">
        <g id="specialty-derma">
            <path d="M132.105279,106.087 C138.334279,98.968 142.138279,89.674 142.138279,79.472 C142.138279,57.12 124.017279,39 101.666279,39 C79.3142794,39 61.1942794,57.12 61.1942794,79.472 C61.1942794,81.864 61.4412794,84.195 61.8392794,86.474 L50.3562794,107.148 C49.2012794,109.606 50.9952794,112.431 53.7112794,112.431 L62.3132794,112.431 L63.1572794,127.911 C63.4552794,133.382 68.1482794,137.566 73.6182794,137.239 L85.4112794,136.532 L86.8092794,153.822 L133.336279,153.822 L132.198279,106.087 L132.105279,106.087 Z" id="Fill-57" fill="#CFD3DE"></path>
            <path d="M108.289879,84.8419 C114.715879,84.8419 118.770879,89.8719 117.710879,96.4769 C116.691879,102.8209 114.715879,108.1119 108.289879,108.1119" id="Stroke-59" stroke="#9097B8" stroke-width="2.422" stroke-linecap="round" stroke-linejoin="round"></path>
            <path d="M68.2458794,85.1925 L79.5438794,88.2195" id="Stroke-61" stroke="#9097B8" stroke-width="2.422" stroke-linecap="round" stroke-linejoin="round"></path>
            <path d="M79.5437794,88.338 L70.1017794,90.868" id="Stroke-63" stroke="#9097B8" stroke-width="2.422" stroke-linecap="round" stroke-linejoin="round"></path>
            <path d="M80.6443794,99.4044 C80.4043794,98.5064 80.9383794,97.5844 81.8353794,97.3434 C82.7333794,97.1044 83.6563794,97.6374 83.8953794,98.5354 C84.1353794,99.4334 83.6023794,100.3554 82.7053794,100.5954 C81.8063794,100.8354 80.8843794,100.3014 80.6443794,99.4044" id="Fill-65" fill="#9097B8"></path>
            <path d="M90.5203794,114.253 C90.2803794,113.356 90.8133794,112.434 91.7113794,112.193 C92.6093794,111.953 93.5313794,112.486 93.7713794,113.385 C94.0113794,114.282 93.4783794,115.205 92.5803794,115.444 C91.6823794,115.685 90.7593794,115.151 90.5203794,114.253" id="Fill-67" fill="#9097B8"></path>
            <path d="M83.7292794,107.255 C84.2632794,106.494 85.3122794,106.311 86.0732794,106.845 C86.8332794,107.379 87.0172794,108.428 86.4842794,109.189 C85.9502794,109.949 84.9002794,110.133 84.1392794,109.6 C83.3782794,109.066 83.1952794,108.016 83.7292794,107.255" id="Fill-69" fill="#9097B8"></path>
            <path d="M71.2175794,105.0352 C71.7515794,104.2742 72.8005794,104.0912 73.5615794,104.6252 C74.3215794,105.1592 74.5055794,106.2082 73.9715794,106.9692 C73.4385794,107.7292 72.3885794,107.9132 71.6275794,107.3792 C70.8665794,106.8462 70.6835794,105.7962 71.2175794,105.0352" id="Fill-71" fill="#9097B8"></path>
            <path d="M91.9021794,101.3018 C92.4361794,100.5408 93.4861794,100.3578 94.2471794,100.8918 C95.0061794,101.4258 95.1911794,102.4748 94.6571794,103.2358 C94.1231794,103.9958 93.0731794,104.1798 92.3121794,103.6458 C91.5521794,103.1128 91.3681794,102.0628 91.9021794,101.3018" id="Fill-73" fill="#9097B8"></path>
            <path d="M75.4978794,112.4669 C76.0308794,111.7059 77.0808794,111.5229 77.8418794,112.0569 C78.6018794,112.5899 78.7858794,113.6399 78.2518794,114.4009 C77.7178794,115.1609 76.6688794,115.3449 75.9078794,114.8109 C75.1468794,114.2769 74.9638794,113.2279 75.4978794,112.4669" id="Fill-75" fill="#9097B8"></path>
        </g>
    </g>
</svg>