<?xml version="1.0" encoding="UTF-8"?>
<svg width="192px" height="192px" viewBox="0 0 192 192" version="1.1" xmlns="http://www.w3.org/2000/svg" xmlns:xlink="http://www.w3.org/1999/xlink">
    <!-- Generator: Sketch 46.2 (44496) - http://www.bohemiancoding.com/sketch -->
    <title>specialty-gineco</title>
    <desc>Created with Sketch.</desc>
    <defs></defs>
    <g id="specialties" stroke="none" stroke-width="1" fill="none" fill-rule="evenodd">
        <g id="specialty-gineco">
            <path d="M134.744,142.329 C143.872,132.499 149.02,119.627 149.02,106.17 C149.02,99.499 147.733,92.01 145.627,84.403 C145.627,84.287 145.627,84.17 145.51,84.17 L145.276,83.468 C144.457,80.776 143.638,78.201 142.584,75.51 L142.35,74.808 C142.35,74.691 142.233,74.574 142.233,74.457 C138.723,65.681 134.159,57.138 128.892,50 L63.244,50.233 C57.861,57.372 53.298,65.914 49.787,74.808 C49.67,74.925 49.67,75.042 49.67,75.159 L49.435,75.861 C48.5,78.435 47.563,81.127 46.744,83.701 L46.51,84.403 C46.51,84.52 46.51,84.638 46.393,84.638 C44.17,92.244 43,99.733 43,106.403 C43,119.861 48.031,132.733 57.276,142.563" id="Fill-47" fill="#CFD3DE"></path>
            <path d="M95.7763,61.5018 C94.8393,61.5018 94.0203,62.3208 94.0203,63.2568 L94.0203,64.3788 C94.0203,65.3148 94.8393,66.1338 95.7763,66.1338 C96.7123,66.1338 97.5313,65.3148 97.5313,64.3788 L97.5313,63.2568 C97.5313,62.3208 96.7123,61.5018 95.7763,61.5018" id="Fill-49" fill="#9097B8"></path>
            <path d="M117.1356,91.8632 C101.1936,98.1192 95.9466,110.8332 95.9466,110.8332 L95.9466,142.5162" id="Stroke-51" stroke="#9097B8" stroke-width="2.422" stroke-linecap="round" stroke-linejoin="round"></path>
            <path d="M74.7567,91.8632 C90.6987,98.1192 95.9457,110.8332 95.9457,110.8332" id="Stroke-53" stroke="#9097B8" stroke-width="2.422" stroke-linecap="round" stroke-linejoin="round"></path>
        </g>
    </g>
</svg>