<?xml version="1.0" encoding="UTF-8"?>
<svg width="192px" height="192px" viewBox="0 0 192 192" version="1.1" xmlns="http://www.w3.org/2000/svg" xmlns:xlink="http://www.w3.org/1999/xlink">
    <!-- Generator: Sketch 46.2 (44496) - http://www.bohemiancoding.com/sketch -->
    <title>specialty-oftal-active</title>
    <desc>Created with Sketch.</desc>
    <defs></defs>
    <g id="specialties" stroke="none" stroke-width="1" fill="none" fill-rule="evenodd">
        <g id="specialty-oftal-active">
            <path d="M113.9118,61.5069 L101.4538,112.2279" id="Stroke-31" stroke="#373C4D" stroke-width="2.422" stroke-linecap="round" stroke-linejoin="round"></path>
            <path d="M47.9939,75.8116 L87.2229,110.2916" id="Stroke-33" stroke="#373C4D" stroke-width="2.422" stroke-linecap="round" stroke-linejoin="round"></path>
            <path d="M145.9011,74.7999 L106.6731,109.2799" id="Stroke-35" stroke="#373C4D" stroke-width="2.422" stroke-linecap="round" stroke-linejoin="round"></path>
            <path d="M79.7019,61 L92.1599,111.721" id="Stroke-37" stroke="#373C4D" stroke-width="2.422" stroke-linecap="round" stroke-linejoin="round"></path>
            <path d="M151.529,103.0997 C151.529,103.0997 138.124,75.4667 96.264,75.4667 C58.199,75.4667 41,103.0997 41,103.0997 C41,103.0997 59.716,130.7317 96.264,130.7317 C134.077,130.7317 151.529,103.0997 151.529,103.0997" id="Fill-39" fill="#EF7466"></path>
            <path d="M151.529,104.2774 C151.529,104.2774 138.124,76.6444 96.264,76.6444 C58.199,76.6444 41,104.2774 41,104.2774" id="Stroke-41" stroke="#373C4D" stroke-width="2.422" stroke-linecap="round" stroke-linejoin="round"></path>
            <path d="M109.321,103.0997 C109.321,95.8887 103.475,90.0427 96.264,90.0427 C89.054,90.0427 83.209,95.8887 83.209,103.0997 C83.209,110.3097 89.054,116.1557 96.264,116.1557 C103.475,116.1557 109.321,110.3097 109.321,103.0997" id="Fill-43" fill="#373C4D"></path>
        </g>
    </g>
</svg>