<?xml version="1.0" encoding="UTF-8"?>
<svg width="192px" height="192px" viewBox="0 0 192 192" version="1.1" xmlns="http://www.w3.org/2000/svg" xmlns:xlink="http://www.w3.org/1999/xlink">
    <!-- Generator: Sketch 46.2 (44496) - http://www.bohemiancoding.com/sketch -->
    <title>specialty-nutri-active</title>
    <desc>Created with Sketch.</desc>
    <defs></defs>
    <g id="specialties" stroke="none" stroke-width="1" fill="none" fill-rule="evenodd">
        <g id="specialty-nutri-active">
            <path d="M113,65.7857645 C108.531,65.7857645 104.062,66.3307645 99.702,67.4207645 L97.854,67.9337645 C97.436,68.2237645 96.928,68.3947645 96.38,68.3947645 C95.772,68.3947645 95.22,68.1777645 94.776,67.8277645 L92.944,67.4207645 C88.585,66.3307645 84.116,65.7857645 79.646,65.7857645 C63.297,65.7857645 50,78.9737645 50,95.2157645 C50,111.455764 56.648,127.260764 68.311,138.596764 C72.453,142.629764 77.903,144.808764 83.68,144.808764 C85.424,144.808764 87.276,144.590764 88.911,144.154764 L96.214,142.301764 L103.518,144.154764 C105.261,144.590764 107.005,144.808764 108.749,144.808764 C114.526,144.808764 120.085,142.519764 124.118,138.486764 L124.336,138.268764 C135.998,126.715764 142.43,111.455764 142.43,95.1057645 C142.647,78.9737645 129.35,65.7857645 113,65.7857645" id="Fill-19" fill="#EF7466"></path>
            <path d="M97.8545,67.9342645 L97.7405,67.9652645 L97.7405,67.0932645 C97.7405,60.1182645 101.6645,53.7962645 107.8765,50.6352645 C108.5315,50.3082645 108.8585,49.4362645 108.5315,48.7832645 C108.2045,48.1282645 107.3325,47.8012645 106.6785,48.1282645 C102.4265,50.1992645 99.1575,53.6872645 97.1955,57.7202645 C92.8355,51.6162645 85.8595,48.0192645 78.3385,48.0192645 C75.7225,48.0192645 73.2155,48.4552645 70.7085,49.3272645 L68.8565,49.9812645 L69.8365,51.3982645 C74.1975,57.8292645 81.3905,61.6442645 89.0205,61.6442645 C91.3095,61.6442645 93.5985,61.3172645 95.8875,60.5542645 C95.2335,62.6242645 94.9065,64.8042645 94.9065,66.9852645 L94.9065,67.8562645 L94.7765,67.8282645 C95.2195,68.1772645 95.7725,68.3952645 96.3795,68.3952645 C96.9275,68.3952645 97.4355,68.2232645 97.8545,67.9342645" id="Fill-21" fill="#373C4D"></path>
            <path d="M96.3427,66.4176645 L96.4167,69.3616645" id="Stroke-23" stroke="#373C4D" stroke-width="2.945" stroke-linecap="round" stroke-linejoin="round"></path>
            <path d="M91.3095,109.276064 C89.1295,110.475064 86.4045,109.821064 85.2055,107.641064 C84.2245,106.005064 84.4425,103.826064 85.7505,102.409064 L91.7455,95.7600645 L93.4895,104.589064 C93.9255,106.442064 93.0535,108.295064 91.3095,109.276064" id="Fill-25" fill="#373C4D"></path>
            <path d="M107.4414,107.641264 C106.2424,109.821264 103.5174,110.475264 101.3374,109.276264 C99.7024,108.294264 98.8304,106.442264 99.1574,104.480264 L100.9014,95.6512645 L106.8964,102.300264 C108.2044,103.935264 108.4214,106.005264 107.4414,107.641264" id="Fill-27" fill="#373C4D"></path>
        </g>
    </g>
</svg>