<?xml version="1.0" encoding="UTF-8"?>
<svg width="192px" height="192px" viewBox="0 0 192 192" version="1.1" xmlns="http://www.w3.org/2000/svg" xmlns:xlink="http://www.w3.org/1999/xlink">
    <!-- Generator: Sketch 46.2 (44496) - http://www.bohemiancoding.com/sketch -->
    <title>specialty-clinic-active</title>
    <desc>Created with Sketch.</desc>
    <defs></defs>
    <g id="specialties" stroke="none" stroke-width="1" fill="none" fill-rule="evenodd">
        <g id="specialty-clinic-active">
            <path d="M80.5,65.087 C80.324,64.032 80.676,63.153 81.379,62.45 C82.082,61.747 82.961,61.395 83.84,61.395 L107.572,61.395 C108.627,61.395 109.331,61.747 110.034,62.45 C110.737,63.153 110.913,64.032 110.913,65.087 L110.21,72.295 L81.203,72.295 L80.5,65.087 Z M140.798,94.269 C138.864,90.754 137.985,86.886 137.81,83.018 L137.81,82.139 C137.81,76.69 133.239,72.295 127.789,72.295 L114.429,72.295 L115.132,65.614 C115.308,63.329 114.604,61.219 113.198,59.637 C111.792,58.055 109.683,57 107.396,57 L83.84,57 C81.555,57 79.621,57.879 78.039,59.637 C76.633,61.219 75.929,63.329 76.105,65.614 L76.809,72.295 L63.447,72.295 C57.998,72.295 53.603,76.69 53.427,82.139 L53.427,83.018 C53.427,86.886 52.372,90.754 50.438,94.269 L43.23,107.63 C42.352,109.212 42,110.794 42,112.552 L42,127.319 C42,131.187 45.165,134.351 49.032,134.351 L142.381,134.351 C146.248,134.351 149.412,131.187 149.412,127.319 L149.412,112.552 C149.412,110.794 149.061,109.212 148.182,107.63 L140.798,94.269 Z" id="Fill-11" fill="#EF7466"></path>
            <path d="M95.4434,89.1768 L95.4434,117.4538" id="Stroke-13" stroke="#373C4D" stroke-width="3.534" stroke-linecap="round" stroke-linejoin="round"></path>
            <path d="M109.582,103.3155 L81.305,103.3155" id="Stroke-15" stroke="#373C4D" stroke-width="3.534" stroke-linecap="round" stroke-linejoin="round"></path>
        </g>
    </g>
</svg>