<?xml version="1.0" encoding="UTF-8"?>
<svg width="96px" height="96px" viewBox="0 0 96 96" version="1.1" xmlns="http://www.w3.org/2000/svg" xmlns:xlink="http://www.w3.org/1999/xlink">
    <!-- Generator: Sketch 46.2 (44496) - http://www.bohemiancoding.com/sketch -->
    <title>white-history</title>
    <desc>Created with Sketch.</desc>
    <defs></defs>
    <g id="tab-navigation" stroke="none" stroke-width="1" fill="none" fill-rule="evenodd">
        <g id="white-history" fill="#FFFFFF">
            <path d="M48.6802,39.8338 L48.6802,50.6668 L58.2832,56.1698 L59.8992,53.5488 L52.0462,49.0418 L52.0462,39.8338 L48.6802,39.8338 Z M50.9242,28.9998 C39.7732,28.9998 30.7312,37.7308 30.7312,48.4998 L24.0002,48.4998 L32.7282,56.9288 L32.8852,57.2308 L41.9492,48.4998 L35.2182,48.4998 C35.2182,40.1148 42.2412,33.3338 50.9242,33.3338 C59.6072,33.3338 66.6302,40.1148 66.6302,48.4998 C66.6302,56.8848 59.6072,63.6668 50.9242,63.6668 C46.5942,63.6668 42.6672,61.9548 39.8402,59.2028 L36.6542,62.2798 C40.3112,65.8118 45.3372,67.9998 50.9242,67.9998 C62.0752,67.9998 71.1172,59.2688 71.1172,48.4998 C71.1172,37.7308 62.0752,28.9998 50.9242,28.9998 L50.9242,28.9998 Z" id="Fill-1"></path>
        </g>
    </g>
</svg>