<?xml version="1.0" encoding="UTF-8"?>
<svg width="750px" height="440px" viewBox="0 0 750 440" version="1.1" xmlns="http://www.w3.org/2000/svg" xmlns:xlink="http://www.w3.org/1999/xlink">
    <!-- Generator: Sketch 45.2 (43514) - http://www.bohemiancoding.com/sketch -->
    <title>Artboard</title>
    <desc>Created with Sketch.</desc>
    <defs></defs>
    <g id="Page-1" stroke="none" stroke-width="1" fill="none" fill-rule="evenodd">
        <g id="Artboard">
            <polygon id="Fill-2" fill="#FFFFFF" points="369.5967 408.4753 527.1017 250.9703 394.8077 174.2973 237.3037 331.8023"></polygon>
            <path d="M482.1827,262.6847 L430.2437,231.1907" id="Stroke-3" stroke="#CCCCCC" stroke-width="2.079"></path>
            <path d="M463.7632,280.6501 L411.8242,249.1561" id="Stroke-4" stroke="#CCCCCC" stroke-width="2.079"></path>
            <path d="M445.8858,299.8508 L393.9468,268.3568" id="Stroke-5" stroke="#CCCCCC" stroke-width="2.079"></path>
            <path d="M427.4664,317.8156 L375.5274,286.3216" id="Stroke-6" stroke="#CCCCCC" stroke-width="2.079"></path>
            <polyline id="Stroke-7" stroke="#CCCCCC" stroke-width="2.079" points="325.4971 289.6759 337.0121 296.2979 319.0351 314.7049 298.0961 302.4769 304.2601 296.1649"></polyline>
            <path d="M272.0875,277.5514 C277.7585,283.2224 288.9515,281.2244 297.0875,273.0884 C305.2235,264.9524 307.2215,253.7594 301.5505,248.0884" id="Stroke-8" stroke="#66809F" stroke-width="3.119" stroke-linecap="round"></path>
            <path d="M199.875,146.5749 L214.324,161.0229 C214.407,161.0229 214.468,161.0429 214.508,161.0849 C214.551,161.1239 214.612,161.1479 214.694,161.1479 L304.558,250.6389 C304.724,250.8029 304.848,250.9489 304.928,251.0739 C305.011,251.1949 305.051,251.3379 305.051,251.5049 L312.955,278.0549 L316.907,291.6399 L316.907,291.9499 C316.907,292.0709 316.864,292.2139 316.784,292.3809 C316.701,292.4609 316.64,292.5649 316.598,292.6899 C316.556,292.8119 316.494,292.9159 316.414,292.9959 L316.29,292.9959 C316.207,293.0799 316.104,293.1629 315.98,293.2429 C315.857,293.3269 315.713,293.4099 315.549,293.4909 L315.302,293.4909 C315.219,293.4909 315.157,293.5119 315.116,293.5529 C315.075,293.5949 315.012,293.6159 314.932,293.6159 C314.849,293.6159 314.786,293.5949 314.746,293.5529 C314.704,293.5119 314.642,293.4909 314.562,293.4909 L314.438,293.4909 L314.314,293.4909 L276.031,281.0179 C275.868,280.9349 275.722,280.8519 275.599,280.7719 C275.475,280.6879 275.333,280.6049 275.167,280.5249 L207.492,212.8509 C207.329,212.7679 207.245,212.6849 207.245,212.6039 L170.483,175.9639" id="Stroke-10" stroke="#66809F" stroke-width="3.119" stroke-linecap="round"></path>
            <path d="M210.5313,170.9196 L285.7313,246.1206" id="Stroke-12" stroke="#FFFFFF" stroke-width="4.159" stroke-linecap="round"></path>
            <polyline id="Stroke-14" stroke="#66809F" stroke-width="2.079" stroke-linecap="round" points="384.6714 211.9841 382.5924 223.9401 420.5394 221.3411"></polyline>
            <polyline id="Stroke-16" stroke="#66809F" stroke-width="2.079" stroke-linecap="round" points="345.6851 250.9704 343.6061 262.9264 381.5531 260.3274"></polyline>
            <path d="M407.0211,339.6462 L355.0821,308.1522" id="Stroke-18" stroke="#CCCCCC" stroke-width="2.079"></path>
            <path d="M388.6016,357.611 L336.6626,326.117" id="Stroke-20" stroke="#CCCCCC" stroke-width="2.079"></path>
            <path d="M199.5557,146.0934 C193.8847,140.4224 182.6917,142.4204 174.5557,150.5564 C166.4197,158.6924 164.4217,169.8854 170.0927,175.5564 C175.7637,181.2274 186.9567,179.2294 195.0927,171.0934 C203.2287,162.9574 205.2267,151.7644 199.5557,146.0934 Z" id="Stroke-22" stroke="#66809F" stroke-width="3.119" stroke-linecap="round"></path>
            <path d="M188.646,157.0031 C187.175,155.5321 184.271,156.0501 182.16,158.1611 C180.049,160.2721 179.531,163.1761 181.002,164.6471 C182.474,166.1181 185.377,165.6001 187.488,163.4891 C189.599,161.3781 190.118,158.4741 188.646,157.0031" id="Fill-24" fill="#66809F"></path>
        </g>
    </g>
</svg>