<?xml version="1.0" encoding="utf-8"?>
<!-- Generator: Adobe Illustrator 21.1.0, SVG Export Plug-In . SVG Version: 6.00 Build 0)  -->
<svg version="1.2" baseProfile="tiny" id="Layer_1" xmlns="http://www.w3.org/2000/svg" xmlns:xlink="http://www.w3.org/1999/xlink"
	 x="0px" y="0px" viewBox="0 0 128 128" xml:space="preserve">
<path fill="#D43649" d="M64,64c10.2,0,18.4-8.2,18.4-18.4S74.2,27.3,64,27.3s-18.4,8.2-18.4,18.4S53.8,64,64,64z M64,75.6
	c-12.2,0-36.7,6.7-36.7,19v6.1h73.4v-6.1C100.7,82.4,76.2,75.6,64,75.6z"/>
<polygon fill="#66809F" points="34.8,58.4 19.6,58.4 19.6,43.2 16.6,43.2 16.6,58.4 1.4,58.4 1.4,61.4 16.6,61.4 16.6,76.6 
	19.6,76.6 19.6,61.4 34.8,61.4 "/>
</svg>
