<?xml version="1.0" encoding="UTF-8"?>
<svg width="610px" height="770px" viewBox="0 0 610 770" version="1.1" xmlns="http://www.w3.org/2000/svg" xmlns:xlink="http://www.w3.org/1999/xlink">
    <!-- Generator: Sketch 45.2 (43514) - http://www.bohemiancoding.com/sketch -->
    <title>Home Image</title>
    <desc>Created with Sketch.</desc>
    <defs>
        <polygon id="path-1" points="573 0.636 573 697.364 0.4829 697.364 0.4829 0.636"></polygon>
        <polygon id="path-3" points="0 850 750 850 750 0 0 0"></polygon>
        <path d="M0.4473,0.91202567 C59.0725023,45.7357756 132.349992,72.364 211.847,72.364 C228.566675,72.364 245.01126,71.1861212 261.1023,68.9088183 L261.1023,0.908655185 L0.4473,0.908655185 L0.4473,0.91202567 Z" id="path-5"></path>
        <path d="M21.102452,34.2014605 C14.2490361,33.9938387 7.44540161,33.5882702 0.697071417,32.9902782 L0.697071417,0.7441 L21.1025,0.7441 L21.1025,34.201462 L21.102452,34.2014605 Z" id="path-7"></path>
    </defs>
    <g id="Page-1" stroke="none" stroke-width="1" fill="none" fill-rule="evenodd">
        <g id="Artboard" transform="translate(-140.000000, -13.000000)">
            <g id="Home-Image">
                <g id="Group-82">
                    <polygon id="Fill-1" fill="#DA9CA7" points="553.2207 186.7974 499.5057 186.7974 499.5057 133.0834 454.2737 133.0834 454.2737 186.7974 400.5587 186.7974 400.5587 232.0304 454.2737 232.0304 454.2737 285.7454 499.5057 285.7454 499.5057 232.0304 553.2207 232.0304"></polygon>
                    <g id="Group-5" transform="translate(177.000000, 76.000000)">
                        <mask id="mask-2" fill="white">
                            <use xlink:href="#path-1"></use>
                        </mask>
                        <g id="Clip-4"></g>
                        <path d="M697.2109,349 C697.2109,156.604 541.2429,0.636 348.8479,0.636 C156.4509,0.636 0.4829,156.604 0.4829,349 C0.4829,541.396 156.4509,697.364 348.8479,697.364 C541.2429,697.364 697.2109,541.396 697.2109,349" id="Fill-3" fill="#CFD3DE" mask="url(#mask-2)"></path>
                    </g>
                    <path d="M295.1445,237.6738 C295.1445,233.4528 291.7225,230.0318 287.5015,230.0318 C283.2815,230.0318 279.8595,233.4528 279.8595,237.6738 C279.8595,241.8948 283.2815,245.3168 287.5015,245.3168 C291.7225,245.3168 295.1445,241.8948 295.1445,237.6738" id="Fill-6" fill="#66809F"></path>
                    <mask id="mask-4" fill="white">
                        <use xlink:href="#path-3"></use>
                    </mask>
                    <g id="Clip-9"></g>
                    <polygon id="Fill-8" fill="#66809F" mask="url(#mask-4)" points="288.383 245.316 328.216 245.316 328.216 215.168 288.383 215.168"></polygon>
                    <path d="M318.4058,215.0293 C318.4058,215.0293 284.8358,200.7363 278.8018,208.7013 C271.8228,217.9133 280.4758,240.9433 280.4758,240.9433 L318.4058,239.7713 L318.4058,215.0293 Z" id="Fill-10" fill="#66809F" mask="url(#mask-4)"></path>
                    <path d="M275.6348,201.8364 C274.3648,186.2134 285.9998,172.5194 301.6218,171.2494 C317.2448,169.9794 330.9388,181.6144 332.2088,197.2374 C333.4788,212.8594 321.8438,226.5544 306.2208,227.8244 C290.5988,229.0944 276.9048,217.4594 275.6348,201.8364" id="Fill-11" fill="#66809F" mask="url(#mask-4)"></path>
                    <polygon id="Fill-12" fill="#66809F" mask="url(#mask-4)" points="327.3345 213.1636 296.0345 217.0486 302.6115 270.0356 333.9115 266.1506"></polygon>
                    <path d="M273.105,189.335 C272.105,177.041 281.262,166.263 293.557,165.264 C305.851,164.265 316.628,173.421 317.627,185.715 C318.627,198.01 309.471,208.787 297.176,209.787 C284.881,210.786 274.105,201.629 273.105,189.335" id="Fill-13" fill="#373C4D" mask="url(#mask-4)"></path>
                    <path d="M285.3789,196.8467 C283.7959,177.3747 298.2979,160.3057 317.7699,158.7227 C337.2419,157.1397 354.3099,171.6417 355.8929,191.1147 C357.4759,210.5857 342.9739,227.6547 323.5019,229.2377 C304.0299,230.8207 286.9619,216.3187 285.3789,196.8467" id="Fill-14" fill="#373C4D" mask="url(#mask-4)"></path>
                    <path d="M370.1963,174.6992 C370.1963,161.9652 359.8733,151.6412 347.1383,151.6412 C334.4043,151.6412 324.0813,161.9652 324.0813,174.6992 C324.0813,187.4332 334.4043,197.7562 347.1383,197.7562 C359.8733,197.7562 370.1963,187.4332 370.1963,174.6992" id="Fill-15" fill="#373C4D" mask="url(#mask-4)"></path>
                    <path d="M367.1611,193.001 C367.1611,182.955 359.0171,174.811 348.9711,174.811 C338.9251,174.811 330.7811,182.955 330.7811,193.001 C330.7811,203.047 338.9251,211.191 348.9711,211.191 C359.0171,211.191 367.1611,203.047 367.1611,193.001" id="Fill-16" fill="#373C4D" mask="url(#mask-4)"></path>
                    <path d="M288.7109,209.1206 C288.7109,209.1206 306.1109,239.0816 329.7449,234.2436 C341.0089,231.9376 354.0299,220.0076 355.7049,196.2796 C357.3799,172.5526 288.7109,209.1206 288.7109,209.1206" id="Fill-17" fill="#373C4D" mask="url(#mask-4)"></path>
                    <path d="M292.9912,226.6602 L292.9912,226.6602 C290.4732,226.6602 288.4312,224.6182 288.4312,222.1002 L288.4312,210.1442 C288.4312,207.6262 290.4732,205.5852 292.9912,205.5852 C295.5092,205.5852 297.5502,207.6262 297.5502,210.1442 L297.5502,222.1002 C297.5502,224.6182 295.5092,226.6602 292.9912,226.6602" id="Fill-18" fill="#66809F" mask="url(#mask-4)"></path>
                    <path d="M330.686,174.1919 C324.227,177.3569 321.333,184.9949 324.074,191.6469 C326.815,198.2979 334.249,201.6789 341.064,199.3749" id="Stroke-19" stroke="#66809F" stroke-width="1.117" mask="url(#mask-4)"></path>
                    <path d="M194.3271,276.6138 C194.3271,270.8338 189.6421,266.1488 183.8621,266.1488 C178.0831,266.1488 173.3971,270.8338 173.3971,276.6138 C173.3971,282.3928 178.0831,287.0778 183.8621,287.0778 C189.6421,287.0778 194.3271,282.3928 194.3271,276.6138" id="Fill-20" fill="#FFFFFF" mask="url(#mask-4)"></path>
                    <path d="M290.293,214.8896 L285.082,216.7506 C285.082,216.7506 285.454,243.5486 285.454,252.1086 C285.454,260.6686 292.154,266.9956 300.342,266.9956" id="Stroke-21" stroke="#373C4D" stroke-width="3.346" mask="url(#mask-4)"></path>
                    <path d="M204.689,297.1436 C198.92,302.9126 193.265,309.2826 193.265,309.2826 L178.689,303.1436 C171.963,300.3106 168.807,292.5616 171.64,285.8356 L174.023,280.1776 C174.023,280.1776 195.012,281.1396 204.689,297.1436" id="Fill-22" fill="#66809F" mask="url(#mask-4)"></path>
                    <path d="M190.2749,276.6138 C190.2749,273.0718 187.4039,270.2008 183.8619,270.2008 C180.3209,270.2008 177.4499,273.0718 177.4499,276.6138 C177.4499,280.1558 180.3209,283.0258 183.8619,283.0258 C187.4039,283.0258 190.2749,280.1558 190.2749,276.6138" id="Fill-23" fill="#373C4D" mask="url(#mask-4)"></path>
                    <path d="M300.3418,266.9961 L309.3478,266.9961" id="Stroke-24" stroke="#373C4D" stroke-width="3.346" mask="url(#mask-4)"></path>
                    <path d="M187.4292,281.5537 C187.4292,281.5537 206.1212,300.5687 240.0002,300.5687 C279.3152,300.5687 297.9392,269.0267 297.9392,269.0267" id="Stroke-25" stroke="#373C4D" stroke-width="3.346" mask="url(#mask-4)"></path>
                    <path d="M319.5186,307.1489 C327.2426,295.6719 324.1996,280.1069 312.7226,272.3829 C311.6336,271.6489 310.5086,271.0139 309.3556,270.4739 C308.7356,270.1829 308.1076,269.9189 307.4746,269.6819 C296.8706,265.7259 284.5536,269.3759 277.9556,279.1789 C270.2326,290.6559 273.2746,306.2209 284.7516,313.9449 C296.2286,321.6689 311.7946,318.6259 319.5186,307.1489" id="Fill-26" fill="#FFFFFF" mask="url(#mask-4)"></path>
                    <path d="M277.894,279.2705 L247.119,331.0135 C238.533,318.9405 204.316,297.5165 204.316,297.5165 L193.151,309.0535 L232.603,359.2995 C234.827,362.2715 238.129,364.6905 241.841,364.6905 C251.585,364.6905 292.619,343.1095 311.322,307.1005 C317.069,296.0345 277.894,279.2705 277.894,279.2705" id="Fill-27" fill="#FFFFFF" mask="url(#mask-4)"></path>
                    <path d="M321.5264,335.4004 C336.1234,335.9344 349.7414,340.5824 361.2714,348.1894 C363.6314,314.1154 363.4054,281.0474 336.8174,257.6924 C323.5664,259.2284 293.1034,268.5784 293.1034,268.5784 C293.2674,268.7424 264.3714,302.7564 263.0984,326.9194 C262.5834,336.7084 271.1064,346.7564 273.7064,349.5834 C287.1364,340.1004 303.6914,334.7484 321.5264,335.4004" id="Fill-28" fill="#FFFFFF" mask="url(#mask-4)"></path>
                    <path d="M667.3652,619.1494 L656.4782,609.2394 C617.8102,574.1744 592.2822,551.0484 592.2822,522.6684 C592.2822,499.5424 610.4522,481.3724 633.5782,481.3724 C646.6422,481.3724 659.1812,487.4534 667.3652,497.0644 C675.5502,487.4534 688.0882,481.3724 701.1532,481.3724 C724.2782,481.3724 742.4482,499.5424 742.4482,522.6684 C742.4482,551.0484 716.9202,574.1744 678.2522,609.3134 L667.3652,619.1494 Z" id="Fill-29" fill="#DA9CA7" mask="url(#mask-4)"></path>
                    <polyline id="Stroke-30" stroke="#373C4D" stroke-width="2.199" mask="url(#mask-4)" points="587.7881 561.9082 608.9061 561.9082 628.4771 583.6802 640.2561 539.0652 649.5361 561.1942 666.6691 561.1942 677.3761 600.0982 698.7921 522.6462 716.2811 561.5522 750.6031 561.5522"></polyline>
                    <g id="Group-35" mask="url(#mask-4)" fill="#DA9CA7">
                        <g transform="translate(476.000000, 13.000000)">
                            <path d="M116.9766,46.1084 C124.0496,48.3544 129.2706,51.3294 132.6376,55.0354 C136.0036,58.7424 137.6876,63.3494 137.6876,68.8604 C137.6876,72.4654 136.5656,76.0184 134.3206,79.5204 C132.0766,83.0244 128.8446,86.2734 124.6276,89.2644 L124.6276,103.1394 C124.6276,103.4104 124.5776,103.6494 124.4756,103.8534 C124.3726,104.0564 124.2206,104.2264 124.0166,104.3644 C123.8786,104.4994 123.7266,104.6014 123.5576,104.6714 C123.3866,104.7354 123.2006,104.7724 122.9966,104.7724 L122.8426,104.7724 L122.6896,104.7724 C122.5526,104.7034 121.0576,104.1584 118.2016,103.1394 C115.3446,102.1194 112.3856,100.0104 109.3256,96.8154 C109.0516,96.8824 108.7806,96.9514 108.5086,97.0184 C108.2366,97.0864 107.9296,97.1554 107.5906,97.2224 C106.7056,97.4944 105.7706,97.7324 104.7856,97.9364 C103.7976,98.1404 102.7956,98.2424 101.7756,98.2424 C97.2176,98.2424 93.2056,97.7164 89.7366,96.6614 C86.2676,95.6074 82.8666,93.8554 79.5346,91.4064 C79.1936,91.1344 78.9896,90.7784 78.9216,90.3354 C78.8536,89.8954 78.9556,89.5034 79.2276,89.1634 C79.4986,88.7544 79.8566,88.5164 80.2996,88.4494 C80.7416,88.3814 81.1316,88.4834 81.4726,88.7544 C84.5336,90.9984 87.6266,92.5974 90.7566,93.5494 C93.8846,94.5024 97.5576,94.9774 101.7756,94.9774 C102.5906,94.9774 103.4236,94.8754 104.2746,94.6714 C105.1246,94.4674 105.9576,94.2634 106.7746,94.0594 C107.2486,93.9244 107.7256,93.8044 108.2036,93.7024 C108.6776,93.6004 109.1546,93.4824 109.6306,93.3454 C109.9026,93.3454 110.1746,93.3804 110.4476,93.4474 C110.7186,93.5154 110.9576,93.6514 111.1616,93.8554 C112.9976,95.9644 114.8506,97.5634 116.7216,98.6504 C118.5916,99.7374 120.1396,100.4874 121.3636,100.8954 L121.3636,88.4494 C121.3636,88.1774 121.4306,87.9224 121.5676,87.6824 C121.7036,87.4454 121.8736,87.2574 122.0786,87.1214 C124.3896,85.4894 127.0266,83.0914 129.9846,79.9284 C132.9436,76.7674 134.4226,73.0774 134.4226,68.8604 C134.4226,64.1004 132.9436,60.1374 129.9846,56.9744 C127.0266,53.8114 122.3486,51.2094 115.9566,49.1694 C115.5476,49.0324 115.2426,48.7614 115.0386,48.3544 C114.8346,47.9454 114.7996,47.5384 114.9366,47.1284 C115.0716,46.7204 115.3446,46.4144 115.7516,46.2104 C116.1606,46.0064 116.5686,45.9734 116.9766,46.1084 M56.6806,81.9194 C63.8896,81.9194 70.4696,81.0174 76.4226,79.2144 C82.3726,77.4134 87.4746,74.8624 91.7266,71.5624 C95.9756,68.2644 99.2586,64.3204 101.5716,59.7304 C103.8826,55.1364 105.0396,50.0204 105.0396,44.3754 C105.0396,38.5254 103.7646,33.1194 101.2136,28.1534 C98.6646,23.1894 95.1596,18.8864 90.7056,15.2474 C86.2496,11.6094 80.9626,8.7524 74.8406,6.6754 C68.7196,4.6044 62.1226,3.5664 55.0486,3.5664 C47.8386,3.5664 41.1226,4.6204 34.8996,6.7274 C28.6756,8.8374 23.2686,11.7274 18.6776,15.4004 C14.0866,19.0734 10.4646,23.3934 7.8126,28.3574 C5.1606,33.3234 3.8326,38.6604 3.8326,44.3754 C3.8326,47.8434 4.4106,51.0564 5.5676,54.0154 C6.7236,56.9744 8.2206,59.6954 10.0566,62.1774 C11.8926,64.6614 13.9156,66.8884 16.1266,68.8604 C18.3366,70.8324 20.5306,72.5674 22.7076,74.0634 C22.9116,74.1994 23.0806,74.3874 23.2176,74.6234 C23.3536,74.8624 23.4216,75.1174 23.4216,75.3884 L23.4216,95.2834 C25.3256,94.1964 28.0286,92.4624 31.5326,90.0804 C35.0356,87.7004 38.4526,84.6074 41.7866,80.7964 C41.9906,80.5934 42.2276,80.4564 42.4996,80.3894 C42.7716,80.3214 43.0426,80.2874 43.3166,80.2874 C45.4236,80.6954 47.6346,81.0684 49.9486,81.4084 C52.2586,81.7494 54.5036,81.9194 56.6806,81.9194 M108.3046,44.3754 C108.3046,50.4954 107.0636,56.0564 104.5806,61.0554 C102.0976,66.0544 98.5946,70.3384 94.0726,73.9104 C89.5486,77.4814 84.1076,80.2524 77.7486,82.2244 C71.3886,84.1984 64.3666,85.1844 56.6806,85.1844 C54.5726,85.1844 52.3786,85.0304 50.1006,84.7254 C47.8216,84.4194 45.6626,84.0624 43.6226,83.6524 C38.8606,88.8914 34.2016,92.8014 29.6456,95.3854 C25.0876,97.9714 22.7076,99.2964 22.5036,99.3644 C22.3666,99.4314 22.2476,99.4824 22.1466,99.5174 C22.0436,99.5514 21.9246,99.5674 21.7886,99.5674 C21.6526,99.5674 21.4986,99.5334 21.3306,99.4664 C21.1606,99.3994 21.0066,99.3294 20.8716,99.2624 C20.6666,99.1254 20.4966,98.9404 20.3606,98.7014 C20.2246,98.4624 20.1576,98.2104 20.1576,97.9364 L20.1576,76.2064 C17.9126,74.6424 15.6176,72.7884 13.2706,70.6454 C10.9236,68.5034 8.8156,66.1054 6.9456,63.4514 C5.0736,60.8004 3.5426,57.8924 2.3546,54.7294 C1.1636,51.5674 0.5686,48.1154 0.5686,44.3754 C0.5686,38.1854 1.9796,32.4034 4.8026,27.0294 C7.6236,21.6574 11.4856,16.9994 16.3826,13.0534 C21.2796,9.1084 27.0266,5.9964 33.6236,3.7184 C40.2206,1.4414 47.3626,0.3004 55.0486,0.3004 C62.5986,0.3004 69.6216,1.4224 76.1166,3.6684 C82.6116,5.9114 88.2566,9.0064 93.0526,12.9514 C97.8476,16.8974 101.5866,21.5554 104.2746,26.9274 C106.9606,32.3014 108.3046,38.1174 108.3046,44.3754" id="Fill-31"></path>
                            <path d="M31.584,48.3911 C32.467,48.3911 33.231,48.0691 33.879,47.4201 C34.524,46.7761 34.849,46.0111 34.849,45.1261 C34.849,44.2431 34.524,43.4781 33.879,42.8291 C33.231,42.1851 32.467,41.8611 31.584,41.8611 C30.698,41.8611 29.934,42.1851 29.288,42.8291 C28.641,43.4781 28.318,44.2431 28.318,45.1261 C28.318,46.0111 28.641,46.7761 29.288,47.4201 C29.934,48.0691 30.698,48.3911 31.584,48.3911" id="Fill-32"></path>
                            <path d="M54.4365,48.0854 C55.3195,48.0854 56.0845,47.7634 56.7325,47.1144 C57.3775,46.4704 57.7015,45.7054 57.7015,44.8204 C57.7015,43.9374 57.3775,43.1724 56.7325,42.5234 C56.0845,41.8794 55.3195,41.5554 54.4365,41.5554 C53.5515,41.5554 52.7875,41.8794 52.1415,42.5234 C51.4945,43.1724 51.1715,43.9374 51.1715,44.8204 C51.1715,45.7054 51.4945,46.4704 52.1415,47.1144 C52.7875,47.7634 53.5515,48.0854 54.4365,48.0854" id="Fill-33"></path>
                            <path d="M77.29,48.0854 C78.173,48.0854 78.937,47.7634 79.585,47.1144 C80.23,46.4704 80.555,45.7054 80.555,44.8204 C80.555,43.9374 80.23,43.1724 79.585,42.5234 C78.937,41.8794 78.173,41.5554 77.29,41.5554 C76.405,41.5554 75.641,41.8794 74.994,42.5234 C74.347,43.1724 74.025,43.9374 74.025,44.8204 C74.025,45.7054 74.347,46.4704 74.994,47.1144 C75.641,47.7634 76.405,48.0854 77.29,48.0854" id="Fill-34"></path>
                        </g>
                    </g>
                    <polygon id="Fill-36" fill="#FFFFFF" mask="url(#mask-4)" points="498.3574 354.3081 448.8084 354.3081 434.2194 369.9411 434.2194 460.6741 441.5194 470.0591 504.6154 470.0591 512.9584 460.6741 512.9584 369.9411"></polygon>
                    <polyline id="Fill-37" fill="#FFFECF" mask="url(#mask-4)" points="448.8086 354.3081 434.2196 369.9411 434.2196 460.6741 441.8526 469.9941 448.1026 470.0591 440.3526 460.7441 440.6026 369.7451 455.1026 354.0781"></polyline>
                    <polygon id="Fill-38" fill="#EBEBEB" mask="url(#mask-4)" points="440.003 460.674 506.917 460.674 506.917 369.755 440.003 369.755"></polygon>
                    <polygon id="Fill-39" fill="#66809F" mask="url(#mask-4)" points="440.353 460.674 506.917 460.674 506.917 407.486 440.353 407.486"></polygon>
                    <path d="M434.2197,460.6738 L483.2357,460.6738" id="Stroke-40" stroke="#66809F" stroke-width="1.143" mask="url(#mask-4)"></path>
                    <path d="M512.958,460.6738 L495.229,460.6738" id="Stroke-41" stroke="#66809F" stroke-width="1.143" mask="url(#mask-4)"></path>
                    <polygon id="Fill-42" fill="#FFFFFF" mask="url(#mask-4)" points="434.22 446.073 487.929 446.073 487.929 396.535 434.22 396.535"></polygon>
                    <polygon id="Fill-43" fill="#EBEBEB" mask="url(#mask-4)" points="487.8525 350.4946 458.8525 350.7446 440.3525 369.9946 507.1025 370.2446"></polygon>
                    <path d="M434.2197,369.9409 L483.2357,369.9409" id="Stroke-44" stroke="#66809F" stroke-width="1.143" mask="url(#mask-4)"></path>
                    <path d="M495.2295,369.9409 L512.9585,369.9409" id="Stroke-45" stroke="#66809F" stroke-width="1.143" mask="url(#mask-4)"></path>
                    <path d="M496.0752,320.395 L451.8462,320.395 C447.4172,320.395 443.8272,323.985 443.8272,328.413 L443.8272,346.29 C443.8272,350.718 447.4172,354.308 451.8462,354.308 L496.0752,354.308 C500.5042,354.308 504.0942,350.718 504.0942,346.29 L504.0942,328.413 C504.0942,323.985 500.5042,320.395 496.0752,320.395" id="Fill-46" fill="#9097B8" mask="url(#mask-4)"></path>
                    <path d="M627.8164,757.6807 C607.6154,757.6807 591.3434,741.4077 591.3434,721.2067 C591.3434,718.0277 593.7754,715.5957 596.9544,715.5957 C600.1344,715.5957 602.5664,718.0277 602.5664,721.2067 C602.5664,735.0477 613.7894,746.4577 627.8164,746.4577 C630.9964,746.4577 633.4274,748.8897 633.4274,752.0697 C633.4274,755.2487 630.9964,757.6807 627.8164,757.6807 M673.2674,672.9507 L631.7444,631.4267 C629.5004,629.1827 625.9464,629.1827 623.8884,631.4267 L582.3654,672.9507 C557.3014,698.0137 557.3014,738.7887 582.3654,764.0397 C594.8964,776.3847 611.3574,782.7437 627.8164,782.7437 C644.2764,782.7437 660.7364,776.3847 673.2674,763.8527 C698.3314,738.7887 698.3314,698.0137 673.2674,672.9507" id="Fill-47" fill="#CFD3DE" mask="url(#mask-4)"></path>
                    <path d="M192.8208,410.8828 C188.9978,414.7058 184.4138,416.6158 179.0708,416.6158 C173.7248,416.6158 169.1408,414.7058 165.3198,410.8828 C161.4968,407.0598 159.5868,402.4758 159.5868,397.1308 C159.5868,391.7878 161.4968,387.2038 165.3198,383.3818 C169.1408,379.5598 173.7248,377.6468 179.0708,377.6468 C184.4138,377.6468 188.9978,379.5598 192.8208,383.3818 C196.6418,387.2038 198.5538,391.7878 198.5538,397.1308 C198.5538,402.4758 196.6418,407.0598 192.8208,410.8828 M214.9938,382.0118 C212.9648,377.2768 210.1738,373.1498 206.6218,369.6308 C203.0708,366.1138 198.9248,363.3228 194.1908,361.2588 C189.4548,359.1968 184.4138,358.1648 179.0708,358.1648 C173.7248,358.1648 168.6838,359.1968 163.9498,361.2588 C159.2138,363.3228 155.0708,366.1138 151.5188,369.6308 C147.9668,373.1498 145.1758,377.2768 143.1468,382.0118 C141.1168,386.7468 140.1018,391.8208 140.1018,397.2338 C140.1018,405.2838 141.9948,413.1138 145.7848,420.7248 C149.5728,428.3358 153.8018,435.1198 158.4698,441.0718 C163.1378,447.0268 167.4668,451.8628 171.4598,455.5838 C175.4498,459.3048 177.6498,461.3338 178.0558,461.6728 C178.1898,461.8088 178.3428,461.9088 178.5118,461.9768 C178.6798,462.0448 178.8678,462.0788 179.0708,462.0788 C179.2728,462.0788 179.4588,462.0448 179.6288,461.9768 C179.7968,461.9088 179.9488,461.8088 180.0848,461.6728 C180.4908,461.4018 182.6888,459.4228 186.6808,455.7368 C190.6728,452.0498 194.9848,447.2298 199.6198,441.2768 C204.2538,435.3218 208.4818,428.5388 212.3048,420.9278 C216.1258,413.3178 218.0388,405.4198 218.0388,397.2338 C218.0388,391.8208 217.0238,386.7468 214.9938,382.0118" id="Fill-48" fill="#DA9CA7" mask="url(#mask-4)"></path>
                    <path d="M610.7207,197.2588 C610.8197,184.1428 609.3527,171.0628 606.3527,158.2958 L622.7907,158.4998 L625.7117,180.2528 L610.7207,197.2588 Z" id="Fill-49" fill="#FFFECF" mask="url(#mask-4)"></path>
                    <path d="M687.6348,155.2798 C689.4648,132.7758 672.7038,113.0498 650.2008,111.2208 C627.6968,109.3908 607.9708,126.1508 606.1418,148.6548 C604.3128,171.1588 621.0718,190.8848 643.5758,192.7138 C666.0798,194.5438 685.8058,177.7838 687.6348,155.2798" id="Fill-50" fill="#FFFECF" mask="url(#mask-4)"></path>
                    <path d="M667.4629,199.7441 C668.7339,184.1011 657.0839,170.3901 641.4419,169.1181 C625.7989,167.8461 612.0869,179.4961 610.8149,195.1391 C609.5429,210.7821 621.1929,224.4941 636.8359,225.7651 C652.4789,227.0371 666.1919,215.3871 667.4629,199.7441" id="Fill-51" fill="#FFFECF" mask="url(#mask-4)"></path>
                    <path d="M687.4307,142.1841 C690.5817,162.4691 696.8967,182.1371 706.1427,200.4671 L676.8877,219.5071 L650.6867,202.6041 L664.8967,155.0111 L687.4307,142.1841 Z" id="Fill-52" fill="#FFFECF" mask="url(#mask-4)"></path>
                    <path d="M687.8789,152.2749 C689.5739,131.4309 674.0499,113.1589 653.2059,111.4649 C632.3609,109.7709 614.0909,125.2949 612.3969,146.1379 C610.7009,166.9829 626.2259,185.2539 647.0689,186.9479 C667.9139,188.6429 686.1849,173.1189 687.8789,152.2749" id="Fill-53" fill="#FFFECF" mask="url(#mask-4)"></path>
                    <path d="M707.8203,209.083 C708.5473,200.144 701.8893,192.308 692.9503,191.582 C684.0103,190.855 676.1743,197.512 675.4483,206.452 C674.7213,215.391 681.3793,223.227 690.3183,223.953 C699.2573,224.68 707.0933,218.022 707.8203,209.083" id="Fill-54" fill="#FFFECF" mask="url(#mask-4)"></path>
                    <path d="M664.6426,170.2144 C664.6426,156.7854 653.7566,145.9004 640.3286,145.9004 C626.8996,145.9004 616.0136,156.7854 616.0136,170.2144 C616.0136,183.6434 626.8996,194.5284 640.3286,194.5284 C653.7566,194.5284 664.6426,183.6434 664.6426,170.2144" id="Fill-55" fill="#EBEBEB" mask="url(#mask-4)"></path>
                    <polygon id="Fill-56" fill="#EBEBEB" mask="url(#mask-4)" points="669.4287 146.6006 646.2047 146.6006 646.2047 217.2316 678.7377 217.2316"></polygon>
                    <polygon id="Fill-57" fill="#EBEBEB" mask="url(#mask-4)" points="616.014 170.145 671.802 170.145 671.802 139.874 616.014 139.874"></polygon>
                    <polygon id="Fill-58" fill="#EBEBEB" mask="url(#mask-4)" points="637.315 194.529 669.291 194.529 669.291 164.258 637.315 164.258"></polygon>
                    <path d="M614.8926,139.5044 C614.8926,139.5044 623.2176,157.6254 673.3306,157.6254 L673.8916,131.7344 L614.8926,139.5044 Z" id="Fill-59" fill="#FFFECF" mask="url(#mask-4)"></path>
                    <g id="Group-62" mask="url(#mask-4)">
                        <g transform="translate(665.000000, 157.000000)">
                            <path d="M7.7979,0.6431 L0.9379,0.6431 L0.9379,41.3151 C0.9379,51.7931 8.6039,60.6931 18.9659,62.2451" id="Fill-60" stroke="none" fill="#FFFECF" fill-rule="evenodd"></path>
                            <path d="M7.7979,0.6431 L0.9379,0.6431 L0.9379,41.3151 C0.9379,51.7931 8.6039,60.6931 18.9659,62.2451" id="Stroke-61" stroke="#9097B8" stroke-width="0.813" fill="none"></path>
                        </g>
                    </g>
                    <path d="M614.8926,139.5044 C614.8926,139.5044 623.2176,157.6254 673.3306,157.6254" id="Stroke-63" stroke="#9097B8" stroke-width="0.813" mask="url(#mask-4)"></path>
                    <path d="M663.9678,380.9014 C661.3548,385.6524 655.4158,387.0784 650.6638,384.4644 C647.1008,382.3264 645.1998,378.2884 645.9128,374.0124 L649.7138,354.7694 L662.7808,369.2604 C665.6308,372.8244 666.1068,377.3384 663.9678,380.9014 M628.8088,384.4644 C624.0578,387.0784 618.1178,385.6524 615.5048,380.9014 C613.3668,377.3384 613.8418,372.5864 616.6928,369.4984 L629.7588,355.0064 L633.5598,374.2494 C634.5098,378.2884 632.6098,382.3264 628.8088,384.4644 M636.6488,294.1904 L632.3718,293.2394 C622.8688,290.8644 613.1288,289.6764 603.3888,289.6764 C567.7538,289.6764 538.7718,318.4224 538.7718,353.8184 C538.7718,389.2164 553.2628,423.6634 578.6828,448.3704 C587.7098,457.1604 599.5878,461.9114 612.1788,461.9114 C615.9808,461.9114 620.0188,461.4364 623.5818,460.4854 L639.4988,456.4474 L655.4158,460.4854 C659.2168,461.4364 663.0178,461.9114 666.8198,461.9114 C679.4098,461.9114 691.5258,456.9224 700.3158,448.1324 L700.7908,447.6574 C726.2098,422.4754 740.2268,389.2164 740.2268,353.5814 C740.7018,318.4224 711.7188,289.6764 676.0838,289.6764 C666.3438,289.6764 656.6038,290.8644 647.1008,293.2394 L642.8248,294.4274" id="Fill-64" fill="#CFD3DE" mask="url(#mask-4)"></path>
                    <path d="M603.3887,289.6763 C606.9507,289.6763 610.5117,289.8393 614.0617,290.1563 L615.0527,284.3863 C615.6317,286.5563 616.1337,288.5893 616.5637,290.4163 C621.8777,291.0053 627.1607,291.9373 632.3717,293.2393 L636.6487,294.1903 L642.8257,294.4273 L647.1017,293.2393 C656.6037,290.8643 666.3437,289.6763 676.0837,289.6763 C688.4357,289.6763 699.9857,293.1353 709.7887,299.1133 L710.6207,299.1133 C717.7217,281.5483 721.5397,263.3853 721.5397,243.9523 C721.5397,232.1823 712.9047,222.4293 701.6237,220.6863 L615.4117,207.3553 C614.5407,207.0753 613.6457,206.8493 612.7217,206.7063 C611.8297,206.5693 610.9167,206.4983 609.9877,206.4973 C609.9557,206.4973 609.9247,206.5023 609.8937,206.5023 L609.8627,206.4973 L609.8617,206.5043 C601.1707,206.5653 593.9817,212.8703 592.5227,221.1553 L592.2367,221.1553 C592.2367,221.1553 590.1127,262.9773 586.5557,291.8953 C591.9257,290.4573 597.5667,289.6763 603.3887,289.6763" id="Fill-65" fill="#DA9CA7" mask="url(#mask-4)"></path>
                    <path d="M605.1992,238.6826 C604.8522,248.1846 605.6162,258.0966 608.8662,265.8146 C615.2082,280.8766 616.7682,290.7446 616.7682,290.7446" id="Stroke-66" stroke="#85374B" stroke-width="1.121" mask="url(#mask-4)"></path>
                    <path d="M680.1025,289.7446 C680.1025,289.7446 679.4985,266.3746 686.7855,244.5126" id="Stroke-67" stroke="#85374B" stroke-width="1.121" mask="url(#mask-4)"></path>
                    <path d="M663.9678,380.9014 C661.3548,385.6524 655.4158,387.0784 650.6638,384.4644 C647.1008,382.3264 645.1998,378.2884 645.9128,374.0124 L649.7138,354.7694 L662.7808,369.2604 C665.6308,372.8244 666.1068,377.3384 663.9678,380.9014 M628.8088,384.4644 C624.0578,387.0784 618.1178,385.6524 615.5048,380.9014 C613.3668,377.3384 613.8418,372.5864 616.6928,369.4984 L629.7588,355.0064 L633.5598,374.2494 C634.5098,378.2884 632.6098,382.3264 628.8088,384.4644 M676.0838,289.6764 C666.3438,289.6764 656.6038,290.8644 647.1008,293.2394 L642.8248,294.4274 L642.8248,292.5274 C642.8248,277.3224 651.3768,263.5444 664.9178,256.6544 C666.3438,255.9424 667.0568,254.0414 666.3438,252.6164 C665.6308,251.1914 663.7308,250.4784 662.3058,251.1914 C653.0398,255.7044 645.9128,263.3064 641.6368,272.0964 C632.1348,258.7934 616.9308,250.9534 600.5378,250.9534 C594.8368,250.9534 589.3728,251.9034 583.9078,253.8044 L579.8698,255.2294 L582.0078,258.3184 C591.5108,272.3344 607.1908,280.6494 623.8198,280.6494 C628.8088,280.6494 633.7978,279.9364 638.7858,278.2734 C637.3618,282.7874 636.6488,287.5384 636.6488,292.2894 L636.6488,294.1904 L632.3718,293.2394 C622.8688,290.8644 613.1288,289.6764 603.3888,289.6764 C567.7538,289.6764 538.7718,318.4224 538.7718,353.8184 C538.7718,389.2164 553.2628,423.6634 578.6828,448.3704 C587.7098,457.1604 599.5878,461.9114 612.1788,461.9114 C615.9808,461.9114 620.0188,461.4364 623.5818,460.4854 L639.4988,456.4474 L655.4158,460.4854 C659.2168,461.4364 663.0178,461.9114 666.8198,461.9114 C679.4098,461.9114 691.5258,456.9224 700.3158,448.1324 L700.7908,447.6574 C726.2098,422.4754 740.2268,389.2164 740.2268,353.5814 C740.7018,318.4224 711.7188,289.6764 676.0838,289.6764" id="Fill-68" fill="#CFD3DE" mask="url(#mask-4)"></path>
                    <path d="M627.8164,757.6807 C607.6154,757.6807 591.3434,741.4077 591.3434,721.2067 C591.3434,718.0277 593.7754,715.5957 596.9544,715.5957 C600.1344,715.5957 602.5664,718.0277 602.5664,721.2067 C602.5664,735.0477 613.7894,746.4577 627.8164,746.4577 C630.9964,746.4577 633.4274,748.8897 633.4274,752.0697 C633.4274,755.2487 630.9964,757.6807 627.8164,757.6807" id="Fill-69" fill="#FFFFFF" mask="url(#mask-4)"></path>
                    <path d="M628.9775,385.2964 C624.2265,387.9094 618.2875,386.4844 615.6735,381.7334 C613.5365,378.1694 614.0105,373.4184 616.8625,370.3294 L629.9275,355.8384 L633.7295,375.0814 C634.6795,379.1194 632.7785,383.1584 628.9775,385.2964" id="Fill-70" fill="#66809F" mask="url(#mask-4)"></path>
                    <path d="M664.1377,381.7329 C661.5247,386.4839 655.5847,387.9099 650.8337,385.2959 C647.2707,383.1579 645.3697,379.1199 646.0817,374.8429 L649.8837,355.6009 L662.9497,370.0919 C665.8007,373.6559 666.2757,378.1699 664.1377,381.7329" id="Fill-71" fill="#66809F" mask="url(#mask-4)"></path>
                    <path d="M479.0098,306.1631 C478.7118,306.1631 478.4218,306.1531 478.1258,306.1521 C477.8288,306.1531 477.5388,306.1631 477.2408,306.1631 L479.0098,306.1631 Z" id="Fill-72" fill="#FFFFFF" mask="url(#mask-4)"></path>
                    <path d="M444.3848,83.7817 L412.3728,95.9627 L454.4898,206.6467 L454.5568,206.6217 C458.3678,214.4817 467.6208,218.2627 475.9408,215.0977 C484.2598,211.9317 488.6568,202.9557 486.2808,194.5507 L486.5018,194.4657 L444.3848,83.7817 Z" id="Fill-73" fill="#FFFFFF" mask="url(#mask-4)"></path>
                    <path d="M460.4687,201.9575 L460.4027,201.9825 L414.0317,80.1215 L407.3177,82.6765 L453.6877,204.5375 L453.7537,204.5125 C458.0157,213.5555 467.6207,218.2635 475.9407,215.0975 C477.0957,214.6575 478.1477,214.0625 479.1307,213.3815 C471.7697,214.2835 464.1387,209.7435 460.4687,201.9575" id="Fill-74" fill="#FFFECF" mask="url(#mask-4)"></path>
                    <path d="M432.4092,72.4502 L413.7872,79.5362 L462.8242,208.4052 L462.8622,208.3902 C465.0802,212.9632 470.4622,215.1622 475.3022,213.3212 C480.1412,211.4802 482.7002,206.2582 481.3162,201.3682 L481.4462,201.3192 L432.4092,72.4502 Z" id="Fill-75" fill="#EBEBEB" mask="url(#mask-4)"></path>
                    <polygon id="Fill-76" fill="#66809F" mask="url(#mask-4)" points="404.3223 81.5557 404.0653 81.6537 409.7183 96.5127 446.7323 82.4287 441.0783 67.5687 441.0023 67.5977"></polygon>
                    <path d="M455.3535,132.749 L436.7315,139.835 L461.2325,204.223 L461.2705,204.208 C463.4885,208.78 468.8715,210.98 473.7095,209.139 C478.5495,207.297 481.1085,202.076 479.7255,197.186 L479.8545,197.137 L455.3535,132.749 Z" id="Fill-77" fill="#DA9CA7" mask="url(#mask-4)"></path>
                    <path d="M439.2227,70.084 L407.0867,82.312 L417.7617,110.364 L417.9287,110.301 C420.1437,113.721 428.0917,114.03 436.4257,110.859 C444.7597,107.688 450.4917,102.173 449.8727,98.146 L449.8977,98.136 L439.2227,70.084 Z" id="Fill-78" fill="#66809F" mask="url(#mask-4)"></path>
                    <path d="M412.4756,96.4814 L444.6766,84.2284" id="Stroke-79" stroke="#373C4D" stroke-width="1.44" mask="url(#mask-4)"></path>
                    <path d="M449.5029,97.2983 L441.6389,100.2903" id="Stroke-80" stroke="#373C4D" stroke-width="1.44" mask="url(#mask-4)"></path>
                    <path d="M432.9277,103.605 L417.4987,109.476" id="Stroke-81" stroke="#373C4D" stroke-width="1.44" mask="url(#mask-4)"></path>
                </g>
                <g id="Group-123" transform="translate(279.000000, 506.000000)">
                    <path d="M88.1729,130.7236 C88.1729,106.4576 68.5019,86.7866 44.2369,86.7866 C19.9719,86.7866 0.3009,106.4576 0.3009,130.7236 C0.3009,154.9886 19.9719,174.6596 44.2369,174.6596 C68.5019,174.6596 88.1729,154.9886 88.1729,130.7236" id="Fill-83" fill="#5F819D"></path>
                    <path d="M121.8613,142.501 C121.8613,118.235 102.1903,98.564 77.9253,98.564 C53.6603,98.564 33.9893,118.235 33.9893,142.501 C33.9893,166.766 53.6603,186.437 77.9253,186.437 C102.1903,186.437 121.8613,166.766 121.8613,142.501" id="Fill-85" fill="#5F819D"></path>
                    <path d="M150.3936,213.8721 L36.1806,246.4661 C36.1806,246.4661 4.6836,172.7891 0.3016,133.3491 C0.3016,133.3491 94.9256,94.8681 113.4176,116.6421 C130.3996,136.6361 150.3936,213.8721 150.3936,213.8721" id="Fill-87" fill="#5F819D"></path>
                    <g id="Group-91" transform="translate(35.000000, 195.000000)">
                        <mask id="mask-6" fill="white">
                            <use xlink:href="#path-5"></use>
                        </mask>
                        <g id="Clip-90"></g>
                        <path d="M0.4473,50.4873 L177.3413,2.0633 C190.9393,-1.7247 205.3953,4.0253 212.6773,16.1193 L261.1023,93.7443 L0.4473,50.4873 Z" id="Fill-89" fill="#FFFECF" mask="url(#mask-6)"></path>
                    </g>
                    <path d="M111.457,151.4512 C111.457,147.3992 108.172,144.1142 104.12,144.1142 C100.067,144.1142 96.783,147.3992 96.783,151.4512 C96.783,155.5042 100.067,158.7882 104.12,158.7882 C108.172,158.7882 111.457,155.5042 111.457,151.4512 Z" id="Stroke-92" stroke="#373C4D" stroke-width="2.201"></path>
                    <path d="M109.6221,145.2148 L181.1581,73.6788" id="Stroke-94" stroke="#373C4D" stroke-width="2.201"></path>
                    <path d="M122.2314,38.0957 C122.2314,18.6077 106.4334,2.8097 86.9454,2.8097 C67.4584,2.8097 51.6604,18.6077 51.6604,38.0957 C51.6604,57.5827 67.4584,73.3807 86.9454,73.3807 C106.4334,73.3807 122.2314,57.5827 122.2314,38.0957" id="Fill-96" fill="#373C4D"></path>
                    <path d="M92.2886,84.3174 L101.8896,87.9304 C107.1476,89.9084 113.0386,87.4794 115.3736,82.3714 L119.9916,72.2714 L124.3616,71.9234 C127.3536,71.6864 129.4676,68.8914 128.8826,65.9474 L122.7306,35.0224 L91.2326,24.8874 L75.3476,53.3734 C75.3476,53.3734 75.2296,41.0294 67.8016,40.8454 C59.4506,40.6394 59.2726,53.4104 66.0596,54.9694" id="Fill-98" fill="#DA9CA7"></path>
                    <path d="M87.2832,99.5391 C90.3222,90.5851 85.5272,80.8631 76.5742,77.8251 C67.6212,74.7861 57.8992,79.5801 54.8602,88.5331 C51.8212,97.4861 56.6162,107.2081 65.5692,110.2471 C74.5222,113.2861 84.2442,108.4921 87.2832,99.5391" id="Fill-100" fill="#DA9CA7"></path>
                    <polygon id="Fill-102" fill="#DA9CA7" points="87.3481 99.3457 54.8211 88.3057 67.1901 51.8767 99.7181 62.9177"></polygon>
                    <g id="Group-106" transform="translate(215.000000, 233.000000)">
                        <mask id="mask-8" fill="white">
                            <use xlink:href="#path-7"></use>
                        </mask>
                        <g id="Clip-105"></g>
                        <path d="M2.1025,0.7441 C-1.8975,12.7441 2.1025,27.7441 21.1025,47.7441" id="Stroke-104" stroke="#66809F" stroke-width="2.201" mask="url(#mask-8)"></path>
                    </g>
                    <path d="M266.8291,143.2354 L171.7731,143.2354 C165.5421,143.2354 160.4911,138.1834 160.4911,131.9534 L160.4911,11.8434 C160.4911,5.6134 165.5421,0.5624 171.7731,0.5624 L266.8291,0.5624 C273.0601,0.5624 278.1111,5.6134 278.1111,11.8434 L278.1111,131.9534 C278.1111,138.1834 273.0601,143.2354 266.8291,143.2354" id="Fill-107" fill="#373C4D"></path>
                    <path d="M189.1113,4.4902 C191.0763,4.4902 192.6693,6.0832 192.6693,8.0482 C192.6693,10.0122 191.0763,11.6052 189.1113,11.6052 C187.1463,11.6052 185.5533,10.0122 185.5533,8.0482 C185.5533,6.0832 187.1463,4.4902 189.1113,4.4902" id="Fill-109" fill="#5F819D"></path>
                    <path d="M174.8809,11.6055 C172.9159,11.6055 171.3239,10.0125 171.3239,8.0475 C171.3239,6.0835 172.9159,4.4905 174.8809,4.4905 C176.8469,4.4905 178.4389,6.0835 178.4389,8.0475 C178.4389,10.0125 176.8469,11.6055 174.8809,11.6055" id="Fill-111" fill="#5F819D"></path>
                    <path d="M173.458,113.3516 L184.131,113.3516 C185.311,113.3516 186.266,114.3086 186.266,115.4866 C186.266,116.6646 185.311,117.6216 184.131,117.6216 L173.458,117.6216 C172.278,117.6216 171.324,116.6646 171.324,115.4866 C171.324,114.3086 172.278,113.3516 173.458,113.3516" id="Fill-113" fill="#5F819D"></path>
                    <path d="M180.5732,131.8506 L173.4582,131.8506 C172.2782,131.8506 171.3242,130.8946 171.3242,129.7166 C171.3242,128.5376 172.2782,127.5816 173.4582,127.5816 L180.5732,127.5816 C181.7532,127.5816 182.7082,128.5376 182.7082,129.7166 C182.7082,130.8946 181.7532,131.8506 180.5732,131.8506" id="Fill-115" fill="#5F819D"></path>
                    <path d="M187.6885,124.7363 L173.4585,124.7363 C172.2785,124.7363 171.3245,123.7793 171.3245,122.6013 C171.3245,121.4233 172.2785,120.4663 173.4585,120.4663 L187.6885,120.4663 C188.8685,120.4663 189.8235,121.4233 189.8235,122.6013 C189.8235,123.7793 188.8685,124.7363 187.6885,124.7363" id="Fill-117" fill="#5F819D"></path>
                    <path d="M235.4473,108.8369 C228.4363,108.8369 224.7303,107.8909 224.7303,106.1019 C224.7303,103.3439 229.2563,98.0449 235.4473,98.0449 C238.6753,98.0449 241.5513,97.3099 243.8623,96.7159 C244.6763,96.5069 245.4623,96.3049 246.1023,96.1899 C245.4993,100.1889 240.4993,108.8369 235.4473,108.8369 M208.8473,108.8369 C203.7943,108.8369 198.7903,100.1779 198.1923,96.1849 C198.8143,96.3019 199.6063,96.5049 200.4293,96.7159 C202.7413,97.3079 205.6183,98.0449 208.8473,98.0449 C215.0383,98.0449 219.5633,103.3459 219.5633,106.1019 C219.5633,107.8909 215.8583,108.8369 208.8473,108.8369 M246.9293,90.9189 C245.6653,90.9189 244.2353,91.2839 242.5803,91.7089 C240.4433,92.2579 238.0233,92.8779 235.4473,92.8779 C231.3733,92.8779 227.5893,94.5339 224.7303,96.9039 L224.7303,88.1669 L227.4673,88.1669 C228.8923,88.1669 230.0503,87.0089 230.0503,85.5829 C230.0503,84.1559 228.8923,82.9989 227.4673,82.9989 L224.7303,82.9989 L224.7303,79.5549 L227.4673,79.5549 C228.8923,79.5549 230.0503,78.3969 230.0503,76.9709 C230.0503,75.5439 228.8923,74.3869 227.4673,74.3869 L224.7303,74.3869 L224.7303,63.9579 C228.2743,65.4299 233.1933,66.1289 238.1063,66.1289 C239.5323,66.1289 240.6903,64.9709 240.6903,63.5449 C240.6903,62.1189 239.5323,60.9619 238.1063,60.9619 C230.0223,60.9619 225.4603,58.9559 224.7303,58.0269 L224.7303,55.4879 L248.7443,55.4879 C250.1713,55.4879 251.3283,54.3329 251.3283,52.9049 C251.3283,51.4769 250.1713,50.3209 248.7443,50.3209 L224.7303,50.3209 L224.7303,41.9429 C231.7563,44.5709 243.9873,44.8509 248.7443,44.8509 C250.1713,44.8509 251.3283,43.6939 251.3283,42.2669 C251.3283,40.8389 250.1713,39.6839 248.7443,39.6839 C234.8573,39.6839 226.5003,37.5899 224.7303,36.3609 L224.7303,29.3899 C229.0323,32.3659 235.6823,34.2099 243.4263,34.2099 C244.8513,34.2099 246.0093,33.0549 246.0093,31.6269 C246.0093,30.1979 244.8513,29.0429 243.4263,29.0429 C232.7263,29.0429 224.7303,24.7919 224.7303,20.9879 C224.7303,19.5609 223.5753,18.4049 222.1473,18.4049 C220.7193,18.4049 219.5633,19.5609 219.5633,20.9879 C219.5633,24.7899 211.5673,29.0429 200.8693,29.0429 C199.4413,29.0429 198.2853,30.1979 198.2853,31.6269 C198.2853,33.0549 199.4413,34.2099 200.8693,34.2099 C208.6113,34.2099 215.2613,32.3659 219.5633,29.3899 L219.5633,36.3609 C217.7953,37.5899 209.4363,39.6839 195.5503,39.6839 C194.1223,39.6839 192.9663,40.8389 192.9663,42.2669 C192.9663,43.6939 194.1223,44.8509 195.5503,44.8509 C200.3053,44.8509 212.5393,44.5709 219.5633,41.9429 L219.5633,50.3209 L195.5503,50.3209 C194.1223,50.3209 192.9663,51.4769 192.9663,52.9049 C192.9663,54.3329 194.1223,55.4879 195.5503,55.4879 L219.5633,55.4879 L219.5633,58.0269 C218.8353,58.9549 214.2693,60.9619 206.1883,60.9619 C204.7603,60.9619 203.6043,62.1189 203.6043,63.5449 C203.6043,64.9709 204.7603,66.1289 206.1883,66.1289 C211.0983,66.1289 216.0203,65.4299 219.5633,63.9579 L219.5633,74.3869 L216.8263,74.3869 C215.3983,74.3869 214.2423,75.5439 214.2423,76.9709 C214.2423,78.3969 215.3983,79.5549 216.8263,79.5549 L219.5633,79.5549 L219.5633,82.9989 L216.8253,82.9989 C215.3963,82.9989 214.2413,84.1559 214.2413,85.5829 C214.2413,87.0089 215.3963,88.1669 216.8253,88.1669 L219.5613,88.1669 L219.5613,96.9039 C216.7023,94.5339 212.9183,92.8779 208.8453,92.8779 C206.2683,92.8779 203.8463,92.2559 201.7113,91.7079 C200.0573,91.2839 198.6283,90.9189 197.3633,90.9189 C194.6503,90.9189 192.9643,92.6589 192.9643,95.4619 C192.9643,100.9919 199.6723,114.0049 208.8473,114.0049 C211.5333,114.0049 216.2513,114.0029 219.8493,112.5779 C220.2743,113.4199 221.1393,114.0049 222.1473,114.0049 C223.1543,114.0049 224.0193,113.4199 224.4453,112.5779 C228.0453,114.0029 232.7613,114.0049 235.4473,114.0049 C244.6233,114.0049 251.3303,100.9919 251.3303,95.4619 C251.3303,92.6589 249.6433,90.9189 246.9293,90.9189" id="Fill-119" fill="#FFFFFF"></path>
                    <path d="M262.1582,27.9697 L262.1582,6.6247 C262.1582,5.4467 263.1132,4.4907 264.2932,4.4907 C265.4722,4.4907 266.4282,5.4467 266.4282,6.6247 L266.4282,27.9697 C266.4282,29.1477 265.4722,30.1047 264.2932,30.1047 C263.1132,30.1047 262.1582,29.1477 262.1582,27.9697" id="Fill-121" fill="#66809F"></path>
                </g>
                <g id="Group-134" transform="translate(219.000000, 306.000000)">
                    <path d="M131.9448,416.7109 C132.3058,424.2339 105.9268,434.6939 105.9268,434.6939 L86.3328,368.3709 L121.5208,358.0149 C121.5208,358.0149 130.3158,382.8019 131.9448,416.7109" id="Fill-124" fill="#DA9CA7"></path>
                    <path d="M101.165,416.8301 C100.954,416.9631 105.877,433.9031 105.877,433.9031 C107.133,438.4531 111.84,441.1241 116.39,439.8681 L201.084,416.4931 L240.547,406.1121 C240.547,406.1121 131.629,397.5811 101.165,416.8301" id="Fill-126" fill="#DA9CA7"></path>
                    <path d="M13.2656,53.5337 C15.5406,56.5757 18.9216,59.0517 22.7206,59.0517 C32.6936,59.0517 74.6926,36.9627 93.8356,0.1057" id="Stroke-128" stroke="#66809F" stroke-width="1.143"></path>
                    <path d="M158.2246,158.5439 C170.9406,144.0129 178.4096,124.7729 177.4666,103.7339 C175.6656,63.5019 142.7716,30.8719 102.5266,29.3999 C58.1486,27.7769 21.6616,63.2729 21.6616,107.2889 C21.6616,111.8969 22.1376,116.3849 22.9056,120.7729 L0.7886,160.5869 C-1.4354,165.3209 2.0186,170.7609 7.2516,170.7609 L23.8156,170.7609 L25.4416,200.5739 C26.0166,211.1109 35.0546,219.1709 45.5886,218.5389 L68.2986,217.1769 L69.2966,221.9819 C70.2436,246.2809 90.2186,265.4929 114.5366,265.4929 C139.8456,265.4929 160.2396,244.7459 159.8046,219.4409 L158.4026,158.5439 L158.2246,158.5439 Z" id="Fill-130" fill="#CFD3DE"></path>
                    <path d="M41.4355,122.4111 C47.4355,128.4111 59.6025,128.2441 66.1025,121.7441" id="Stroke-132" stroke="#66809F" stroke-width="2.201" stroke-linecap="round"></path>
                </g>
            </g>
        </g>
    </g>
</svg>